<?xml version="1.0" encoding="UTF-8"?>
<svg version="1.1" xmlns="http://www.w3.org/2000/svg" width="150" height="146">
<path d="M0 0 C0.5775 0.185625 1.155 0.37125 1.75 0.5625 C3.9554487 1.17186665 3.9554487 1.17186665 5.8828125 0.4375 C8.4945942 -0.10220397 9.69744323 0.39909644 12.125 1.4375 C14.96778254 2.67174773 14.96778254 2.67174773 18 3 C18.36630156 6.93774177 18.30233203 8.56539771 16 11.875 C15.34 12.57625 14.68 13.2775 14 14 C14.99 14 15.98 14 17 14 C17.33 13.01 17.66 12.02 18 11 C22.4461452 8.97902491 24.02140763 9.00428153 29 10 C29.495 19.405 29.495 19.405 30 29 C30.99 28.505 30.99 28.505 32 28 C32.47597366 25.29400158 32.84093629 22.66404596 33.125 19.9375 C33.25455078 18.79958008 33.25455078 18.79958008 33.38671875 17.63867188 C33.59939517 15.76003014 33.80075459 13.88011364 34 12 C41.65625 11.703125 41.65625 11.703125 44.75 14.375 C45.4925 15.24125 46.235 16.1075 47 17 C47.7425 17.309375 48.485 17.61875 49.25 17.9375 C51 19 51 19 51.75 21.5625 C52.6447985 33.86597938 52.6447985 33.86597938 50 39 C49.67 39.66 49.34 40.32 49 41 C48.01 41.66 47.02 42.32 46 43 C46.67546875 43.13277344 47.3509375 43.26554687 48.046875 43.40234375 C48.93890625 43.57894531 49.8309375 43.75554688 50.75 43.9375 C51.63171875 44.11152344 52.5134375 44.28554688 53.421875 44.46484375 C55.63235053 44.92368488 57.81512068 45.43336074 60 46 C60.2165625 47.36125 60.2165625 47.36125 60.4375 48.75 C60.89910701 51.78625519 60.89910701 51.78625519 61.5390625 53.83203125 C62.53858126 58.5331576 62.03856335 63.34239381 61 68 C58.39575156 71.86090166 54.29956518 73.539291 50 75 C47.24609375 75.265625 47.24609375 75.265625 44.4375 75.25 C43.50808594 75.25515625 42.57867187 75.2603125 41.62109375 75.265625 C38.9445538 74.99438101 37.29561718 74.36116595 35 73 C35 72.34 35 71.68 35 71 C33.68 71 32.36 71 31 71 C30.01 72.98 30.01 72.98 29 75 C27.35 75 25.7 75 24 75 C23.67 75.66 23.34 76.32 23 77 C20.03 77 17.06 77 14 77 C13.67 76.01 13.34 75.02 13 74 C12.34 74 11.68 74 11 74 C11 73.01 11 72.02 11 71 C6.38 71 1.76 71 -3 71 C-3 71.66 -3 72.32 -3 73 C-4.93596892 73.22211116 -6.87389328 73.42722992 -8.8125 73.625 C-9.89144531 73.74101563 -10.97039062 73.85703125 -12.08203125 73.9765625 C-15 74 -15 74 -18 72 C-20.34013344 72.64238957 -22.67251306 73.31320058 -25 74 C-27.69551241 74.16964763 -30.2952723 74.09490273 -33 74 C-33.33 73.34 -33.66 72.68 -34 72 C-38.64288368 70.40400874 -43.25310055 71.32778112 -48 72 C-48 74.64 -48 77.28 -48 80 C-49.31057393 80.36122881 -50.62353624 80.71380311 -51.9375 81.0625 C-52.66839844 81.25972656 -53.39929688 81.45695312 -54.15234375 81.66015625 C-55.06693359 81.82837891 -55.06693359 81.82837891 -56 82 C-56.495 81.505 -56.495 81.505 -57 81 C-60.08434172 81.22258136 -63.14312594 81.5862732 -66.21484375 81.94140625 C-67.13394531 81.96074219 -68.05304688 81.98007813 -69 82 C-71 80 -71 80 -72 78 C-71.83219837 75.30434798 -71.38844355 72.67594446 -71 70 C-72.11375 70.04125 -73.2275 70.0825 -74.375 70.125 C-78 70 -78 70 -80 68 C-80.2260745 65.49262823 -80.32436805 63.13153192 -80.3125 60.625 C-80.32861328 59.95210937 -80.34472656 59.27921875 -80.36132812 58.5859375 C-80.36422642 55.64127418 -80.10439465 53.253587 -78.98046875 50.5234375 C-77 49 -77 49 -69 49 C-69 43.06 -69 37.12 -69 31 C-65.49425163 29.24712582 -64.23745686 28.73394302 -60.5859375 28.55078125 C-59.74659668 28.50671143 -58.90725586 28.4626416 -58.04248047 28.41723633 C-57.16221191 28.38267334 -56.28194336 28.34811035 -55.375 28.3125 C-54.47797363 28.27342529 -53.58094727 28.23435059 -52.65673828 28.1940918 C-46.66530044 27.97043322 -40.92385938 27.94899269 -35 29 C-31.87026025 32.12973975 -31.51386569 35.71778592 -31 40 C-31.4375 42.875 -31.4375 42.875 -32 45 C-29.00519083 45.8723412 -26.36424089 46.10829766 -23.25 46.0625 C-22.45078125 46.05347656 -21.6515625 46.04445312 -20.828125 46.03515625 C-20.22484375 46.02355469 -19.6215625 46.01195312 -19 46 C-19 45.34 -19 44.68 -19 44 C-16.69 44 -14.38 44 -12 44 C-12.495 42.02 -12.495 42.02 -13 40 C-12.38125 39.95875 -11.7625 39.9175 -11.125 39.875 C-10.42375 39.58625 -9.7225 39.2975 -9 39 C-7.80404463 36.1628485 -7.80404463 36.1628485 -7 33 C-6.34219247 31.66227377 -5.67453279 30.32937118 -5 29 C-4.31759536 27.36062948 -3.65158242 25.71436324 -3 24.0625 C-2.67 23.22847656 -2.34 22.39445312 -2 21.53515625 C-1.67 20.69855469 -1.34 19.86195312 -1 19 C-0.60167969 18.10925781 -0.20335938 17.21851562 0.20703125 16.30078125 C0.46871094 15.54152344 0.73039062 14.78226563 1 14 C0.04422943 12.63461347 -0.96352976 11.30518475 -2 10 C-2.6875 6.25 -2.6875 6.25 -3 3 C-2.34 2.67 -1.68 2.34 -1 2 C-0.67 1.34 -0.34 0.68 0 0 Z M9 31 C8.56916165 32.99108405 8.56916165 32.99108405 8.4375 35.3125 C8.19409827 38.31776628 7.8054144 41.0911893 7 44 C7.59167969 43.95359375 8.18335937 43.9071875 8.79296875 43.859375 C9.58316406 43.82328125 10.37335938 43.7871875 11.1875 43.75 C12.35345703 43.68039063 12.35345703 43.68039063 13.54296875 43.609375 C16 44 16 44 18.34375 45.96875 C21.76020454 48.58133288 24.05742921 48.59093193 28.3125 48.75 C29.56675781 48.80671875 30.82101563 48.8634375 32.11328125 48.921875 C33.54220703 48.96054688 33.54220703 48.96054688 35 49 C35.66 48.01 36.32 47.02 37 46 C36.35933594 45.91363281 35.71867187 45.82726563 35.05859375 45.73828125 C28.80425754 44.72230115 24.63057452 43.42924519 20 39 C19.5625 35.6875 19.5625 35.6875 20 33 C16.94729537 32.84188612 16.94729537 32.84188612 14 34 C13.67 32.68 13.34 31.36 13 30 C10.9254644 29.8509288 10.9254644 29.8509288 9 31 Z M-63 32 C-63.33 32.66 -63.66 33.32 -64 34 C-60.25085209 34.22616462 -56.50077551 34.42782662 -52.75 34.625 C-51.15478516 34.72167969 -51.15478516 34.72167969 -49.52734375 34.8203125 C-48.50253906 34.871875 -47.47773437 34.9234375 -46.421875 34.9765625 C-45.00793457 35.05511475 -45.00793457 35.05511475 -43.56542969 35.13525391 C-40.85052215 34.99211927 -39.30740658 34.3910908 -37 33 C-37 32.67 -37 32.34 -37 32 C-45.66741761 30.96816457 -54.34703745 30.58046977 -63 32 Z M-36 33 C-36.33 33.99 -36.66 34.98 -37 36 C-36.34 36 -35.68 36 -35 36 C-35.33 35.01 -35.66 34.02 -36 33 Z M-66 34 C-65.67 34.66 -65.34 35.32 -65 36 C-64.67 35.34 -64.34 34.68 -64 34 C-64.66 34 -65.32 34 -66 34 Z M-35 36 C-36.29633621 37.06645115 -36.29633621 37.06645115 -36.0625 39.5625 C-36.041875 40.366875 -36.02125 41.17125 -36 42 C-35.34 42 -34.68 42 -34 42 C-34 40.02 -34 38.04 -34 36 C-34.33 36 -34.66 36 -35 36 Z M0 38 C-0.33 38.99 -0.66 39.98 -1 41 C-0.34 41 0.32 41 1 41 C0.67 40.01 0.34 39.02 0 38 Z M-2 41 C-2 42.98 -2 44.96 -2 47 C-1.34 47 -0.68 47 0 47 C0 45.35 0 43.7 0 42 C-0.66 41.67 -1.32 41.34 -2 41 Z M-54 44 C-54.04125 45.27875 -54.0825 46.5575 -54.125 47.875 C-54.14820312 48.59429687 -54.17140625 49.31359375 -54.1953125 50.0546875 C-54.18331689 52.23863645 -54.18331689 52.23863645 -52 54 C-50.68 54 -49.36 54 -48 54 C-48 53.34 -48 52.68 -48 52 C-46.68 51.34 -45.36 50.68 -44 50 C-44.94875 49.7525 -45.8975 49.505 -46.875 49.25 C-50 48 -50 48 -51.375 45.875 C-51.58125 45.25625 -51.7875 44.6375 -52 44 C-52.66 44 -53.32 44 -54 44 Z M-13 46 C-12.05872202 48.42084116 -12.05872202 48.42084116 -8.5 49.5 C-5 51 -5 51 -4 53 C-3.01 52.67 -2.02 52.34 -1 52 C-1.78375 51.38125 -2.5675 50.7625 -3.375 50.125 C-6 48 -6 48 -8 46 C-10.58354218 45.83312552 -10.58354218 45.83312552 -13 46 Z M10 46 C10 46.99 10 47.98 10 49 C12.31 49.33 14.62 49.66 17 50 C17.33 49.34 17.66 48.68 18 48 C14.91190305 46.23537317 13.76687864 46 10 46 Z M41 46 C41.99 47.485 41.99 47.485 43 49 C46.465 48.505 46.465 48.505 50 48 C50 47.34 50 46.68 50 46 C47.03 46 44.06 46 41 46 Z M-17 47 C-15.02 47.99 -15.02 47.99 -13 49 C-13 48.34 -13 47.68 -13 47 C-14.32 47 -15.64 47 -17 47 Z M51 47 C50.67 47.66 50.34 48.32 50 49 C51.32 50.32 52.64 51.64 54 53 C54.99 52.67 55.98 52.34 57 52 C56.67 50.68 56.34 49.36 56 48 C54.35 47.67 52.7 47.34 51 47 Z M-28 49 C-28.33 49.99 -28.66 50.98 -29 52 C-26.07120629 51.37240135 -23.63904371 50.41377341 -21 49 C-23.31 49 -25.62 49 -28 49 Z M-19 49 C-21.11683841 49.89163577 -21.11683841 49.89163577 -23 51 C-22.34 52.65 -21.68 54.3 -21 56 C-18.2160817 54.60804085 -18.02101003 52.84424221 -17 50 C-17.66 49.67 -18.32 49.34 -19 49 Z M17 50 C17.33 51.32 17.66 52.64 18 54 C20.31 53.34 22.62 52.68 25 52 C25 51.67 25 51.34 25 51 C22.36 50.67 19.72 50.34 17 50 Z M-37 51 C-36.34 52.98 -35.68 54.96 -35 57 C-32.7226499 54.18490007 -32.7226499 54.18490007 -33 51 C-34.32 51 -35.64 51 -37 51 Z M0 51 C0 51.33 0 51.66 0 52 C2.97 52.33 5.94 52.66 9 53 C9.33 52.01 9.66 51.02 10 50 C6.58900832 50 3.36911686 50.49145406 0 51 Z M-66 44 C-66.33 46.64 -66.66 49.28 -67 52 C-69.97 52 -72.94 52 -76 52 C-76 52.99 -76 53.98 -76 55 C-70.555 54.505 -70.555 54.505 -65 54 C-65 50.7 -65 47.4 -65 44 C-65.33 44 -65.66 44 -66 44 Z M35 51 C33.35 51.33 31.7 51.66 30 52 C30.33 52.66 30.66 53.32 31 54 C32.65 53.67 34.3 53.34 36 53 C35.67 52.34 35.34 51.68 35 51 Z M56 53 C56 54.65 56 56.3 56 58 C52.7 58 49.4 58 46 58 C46.33 58.66 46.66 59.32 47 60 C48.093125 60.103125 49.18625 60.20625 50.3125 60.3125 C54 61 54 61 56.4375 63.5625 C56.953125 64.366875 57.46875 65.17125 58 66 C59.29721449 62.10835652 59.13033993 59.10570774 59 55 C58.67 54.34 58.34 53.68 58 53 C57.34 53 56.68 53 56 53 Z M-77 55 C-77 58.96 -77 62.92 -77 67 C-75.68 67.33 -74.36 67.66 -73 68 C-71.22809091 66.64555699 -71.22809091 66.64555699 -70 65 C-71.98 65 -73.96 65 -76 65 C-76 61.7 -76 58.4 -76 55 C-76.33 55 -76.66 55 -77 55 Z M33 55 C32.67 55.99 32.34 56.98 32 58 C32.99 58 33.98 58 35 58 C35 57.01 35 56.02 35 55 C34.34 55 33.68 55 33 55 Z M47 55 C48 57 48 57 48 57 Z M-11 56 C-10.67 56.99 -10.34 57.98 -10 59 C-8.68 58.34 -7.36 57.68 -6 57 C-7.65 56.67 -9.3 56.34 -11 56 Z M-4 55 C-4.66 55.66 -5.32 56.32 -6 57 C-5.01 57 -4.02 57 -3 57 C-3.33 56.34 -3.66 55.68 -4 55 Z M-3 57 C-2.34 57.66 -1.68 58.32 -1 59 C-1 58.34 -1 57.68 -1 57 C-1.66 57 -2.32 57 -3 57 Z M5 57 C4.34 60.3 3.68 63.6 3 67 C4.98 67 6.96 67 9 67 C8.7525 66.195625 8.7525 66.195625 8.5 65.375 C7.90339788 62.54113991 7.9343632 59.8880194 8 57 C7.01 57 6.02 57 5 57 Z M27 57 C28.485 57.99 28.485 57.99 30 59 C30 58.34 30 57.68 30 57 C29.01 57 28.02 57 27 57 Z M-36 58 C-36.33 58.66 -36.66 59.32 -37 60 C-36.34 60.66 -35.68 61.32 -35 62 C-35.33 60.68 -35.66 59.36 -36 58 Z M-11 59 C-10 61 -10 61 -10 61 Z M-2 60 C-1 63 -1 63 -1 63 Z M16 60 C17 63 17 63 17 63 Z M-20 62 C-20.33 63.65 -20.66 65.3 -21 67 C-24.3 67.33 -27.6 67.66 -31 68 C-28.37353276 71.2315505 -28.37353276 71.2315505 -25.25 71.375 C-21.30033329 70.91926923 -18.57459117 69.71580376 -15 68 C-16.30406884 65.98079663 -17.63823419 63.98075027 -19 62 C-19.33 62 -19.66 62 -20 62 Z M32 62 C32 63.32 32 64.64 32 66 C32.99 66 33.98 66 35 66 C35 64.68 35 63.36 35 62 C34.01 62 33.02 62 32 62 Z M15 63 C15 64.32 15 65.64 15 67 C14.01 67.33 13.02 67.66 12 68 C13.32 69.32 14.64 70.64 16 72 C16.66 71.67 17.32 71.34 18 71 C17.74438677 68.6568787 17.40729228 66.32156597 17 64 C16.34 63.67 15.68 63.34 15 63 Z M-35 62 C-35.99 63.485 -35.99 63.485 -37 65 C-38.32 64.67 -39.64 64.34 -41 64 C-41.66 65.32 -42.32 66.64 -43 68 C-41.01432292 67.96744792 -39.02864583 67.93489583 -37.04296875 67.90234375 C-35 68 -35 68 -32 69 C-32 68.34 -32 67.68 -32 67 C-32.66 67 -33.32 67 -34 67 C-34 65.35 -34 63.7 -34 62 C-34.33 62 -34.66 62 -35 62 Z M25 65 C25 66.65 25 68.3 25 70 C27.12438339 70.08078641 29.2496323 70.13909141 31.375 70.1875 C32.55835937 70.22230469 33.74171875 70.25710937 34.9609375 70.29296875 C35.96382812 70.19628906 36.96671875 70.09960938 38 70 C38.66 69.01 39.32 68.02 40 67 C39.01 67 38.02 67 37 67 C34.66666667 67 32.33333333 67 30 67 C30 66.01 30 65.02 30 64 C27.0745356 63.7763932 27.0745356 63.7763932 25 65 Z M37 64 C38 66 38 66 38 66 Z M-69 65 C-69 69.29 -69 73.58 -69 78 C-66.3333581 79.33332095 -64.83319697 78.67102033 -62 78 C-62.66 77.34 -63.32 76.68 -64 76 C-64.4140625 73.3984375 -64.4140625 73.3984375 -64.625 70.375 C-64.69976562 69.37210937 -64.77453125 68.36921875 -64.8515625 67.3359375 C-64.90054688 66.56507812 -64.94953125 65.79421875 -65 65 C-66.32 65 -67.64 65 -69 65 Z M-54 65 C-54 69.29 -54 73.58 -54 78 C-53.01 77.67 -52.02 77.34 -51 77 C-50.67 74.69 -50.34 72.38 -50 70 C-48.02 69.67 -46.04 69.34 -44 69 C-44 68.34 -44 67.68 -44 67 C-47.3 66.34 -50.6 65.68 -54 65 Z M-3.5625 67.5 C-4.036875 67.995 -4.51125 68.49 -5 69 C-2.36 68.67 0.28 68.34 3 68 C-0.47506296 65.75430597 -0.47506296 65.75430597 -3.5625 67.5 Z M54 66 C52.35 67.65 50.7 69.3 49 71 C51.37374861 71.33425735 51.37374861 71.33425735 54 71 C55.84315671 69.0995533 55.84315671 69.0995533 57 67 C56.01 66.67 55.02 66.34 54 66 Z M-14 68 C-14.33 68.99 -14.66 69.98 -15 71 C-12.69 71 -10.38 71 -8 71 C-8 70.34 -8 69.68 -8 69 C-10.97 68.505 -10.97 68.505 -14 68 Z M-7 68 C-6 70 -6 70 -6 70 Z M44 71 C48 72 48 72 48 72 Z M19 73 C20.98 73 22.96 73 25 73 C24.67 72.34 24.34 71.68 24 71 C21.67642489 70.81509993 21.67642489 70.81509993 19 73 Z " fill="#A78C1F" transform="translate(84,18)"/>
<path d="M0 0 C3.10996248 3.10996248 3.57233759 6.72337589 4 11 C3.04777571 14.14966497 1.83672889 16.24490667 0 19 C0.495 19.99 0.495 19.99 1 21 C0.01 21.33 -0.98 21.66 -2 22 C-0.68 22.99 0.64 23.98 2 25 C1.14285714 33.57142857 1.14285714 33.57142857 -1 37 C-3.03489175 36.49127706 -5.0545937 35.98345646 -7.0625 35.375 C-9.20541252 34.79583936 -9.20541252 34.79583936 -12 36 C-12 34.68 -12 33.36 -12 32 C-13.32 31.34 -14.64 30.68 -16 30 C-15.01 29.01 -14.02 28.02 -13 27 C-14.12795963 22.89100419 -15.33510818 18.92438786 -17 15 C-17.66 15 -18.32 15 -19 15 C-19 17.64 -19 20.28 -19 23 C-20.32 23.33 -21.64 23.66 -23 24 C-22.67 25.65 -22.34 27.3 -22 29 C-20.35 29.33 -18.7 29.66 -17 30 C-17 30.66 -17 31.32 -17 32 C-20.96 32 -24.92 32 -29 32 C-29.33 32.99 -29.66 33.98 -30 35 C-31.485 35.495 -31.485 35.495 -33 36 C-33 40.29 -33 44.58 -33 49 C-30.70858714 49.05384521 -28.41681812 49.09272087 -26.125 49.125 C-24.21074219 49.15980469 -24.21074219 49.15980469 -22.2578125 49.1953125 C-18.91406662 49.35641524 -18.91406662 49.35641524 -17 47 C-16.60235737 45.01178687 -16.26224651 43.01055661 -16 41 C-13.69 41 -11.38 41 -9 41 C-9 41.66 -9 42.32 -9 43 C-10.32 43 -11.64 43 -13 43 C-13 45.64 -13 48.28 -13 51 C-14.31057393 51.36122881 -15.62353624 51.71380311 -16.9375 52.0625 C-17.66839844 52.25972656 -18.39929688 52.45695312 -19.15234375 52.66015625 C-19.76207031 52.77230469 -20.37179688 52.88445312 -21 53 C-21.495 52.505 -21.495 52.505 -22 52 C-25.08434172 52.22258136 -28.14312594 52.5862732 -31.21484375 52.94140625 C-32.13394531 52.96074219 -33.05304687 52.98007813 -34 53 C-36 51 -36 51 -37 49 C-36.83219837 46.30434798 -36.38844355 43.67594446 -36 41 C-37.11375 41.04125 -38.2275 41.0825 -39.375 41.125 C-43 41 -43 41 -45 39 C-45.2260745 36.49262823 -45.32436805 34.13153192 -45.3125 31.625 C-45.32861328 30.95210937 -45.34472656 30.27921875 -45.36132812 29.5859375 C-45.36422642 26.64127418 -45.10439465 24.253587 -43.98046875 21.5234375 C-42 20 -42 20 -34 20 C-34 14.06 -34 8.12 -34 2 C-30.57425402 0.28712701 -29.37885224 -0.25954957 -25.83984375 -0.44921875 C-24.65636353 -0.51532349 -24.65636353 -0.51532349 -23.44897461 -0.58276367 C-22.62018799 -0.61732666 -21.79140137 -0.65188965 -20.9375 -0.6875 C-20.09002197 -0.72657471 -19.24254395 -0.76564941 -18.36938477 -0.8059082 C-5.62215622 -1.3061575 -5.62215622 -1.3061575 0 0 Z M-28 3 C-28.33 3.66 -28.66 4.32 -29 5 C-25.25085209 5.22616462 -21.50077551 5.42782662 -17.75 5.625 C-16.15478516 5.72167969 -16.15478516 5.72167969 -14.52734375 5.8203125 C-13.50253906 5.871875 -12.47773437 5.9234375 -11.421875 5.9765625 C-10.00793457 6.05511475 -10.00793457 6.05511475 -8.56542969 6.13525391 C-5.85052215 5.99211927 -4.30740658 5.3910908 -2 4 C-2 3.67 -2 3.34 -2 3 C-10.66741761 1.96816457 -19.34703745 1.58046977 -28 3 Z M-1 4 C-1.33 4.99 -1.66 5.98 -2 7 C-1.34 7 -0.68 7 0 7 C-0.33 6.01 -0.66 5.02 -1 4 Z M-31 5 C-30.67 5.66 -30.34 6.32 -30 7 C-29.67 6.34 -29.34 5.68 -29 5 C-29.66 5 -30.32 5 -31 5 Z M0 7 C-1.29633621 8.06645115 -1.29633621 8.06645115 -1.0625 10.5625 C-1.041875 11.366875 -1.02125 12.17125 -1 13 C-0.34 13 0.32 13 1 13 C1 11.02 1 9.04 1 7 C0.67 7 0.34 7 0 7 Z M-31 15 C-31.33 17.64 -31.66 20.28 -32 23 C-34.97 23 -37.94 23 -41 23 C-41 23.99 -41 24.98 -41 26 C-35.555 25.505 -35.555 25.505 -30 25 C-30 21.7 -30 18.4 -30 15 C-30.33 15 -30.66 15 -31 15 Z M-42 26 C-42 29.96 -42 33.92 -42 38 C-40.68 38.33 -39.36 38.66 -38 39 C-36.22809091 37.64555699 -36.22809091 37.64555699 -35 36 C-36.98 36 -38.96 36 -41 36 C-41 32.7 -41 29.4 -41 26 C-41.33 26 -41.66 26 -42 26 Z M-1 29 C-1.33 29.66 -1.66 30.32 -2 31 C-1.34 31.66 -0.68 32.32 0 33 C-0.33 31.68 -0.66 30.36 -1 29 Z " fill="#B9B6B3" transform="translate(49,47)"/>
<path d="M0 0 C1.54950268 1.54950268 1.21655193 3.09990594 1.31640625 5.25390625 C1.35830078 6.10791016 1.40019531 6.96191406 1.44335938 7.84179688 C1.48267578 8.73962891 1.52199219 9.63746094 1.5625 10.5625 C1.60568359 11.46419922 1.64886719 12.36589844 1.69335938 13.29492188 C1.79978142 15.52978485 1.90179988 17.76476308 2 20 C2.66 19.67 3.32 19.34 4 19 C4.47597366 16.29400158 4.84093629 13.66404596 5.125 10.9375 C5.21136719 10.17888672 5.29773438 9.42027344 5.38671875 8.63867188 C5.59939517 6.76003014 5.80075459 4.88011364 6 3 C13.65625 2.703125 13.65625 2.703125 16.75 5.375 C17.86375 6.674375 17.86375 6.674375 19 8 C19.7425 8.309375 20.485 8.61875 21.25 8.9375 C23 10 23 10 23.75 12.5625 C24.6447985 24.86597938 24.6447985 24.86597938 22 30 C21.67 30.66 21.34 31.32 21 32 C17.80256397 34.13162402 14.58597764 35.64314359 11 37 C10.01 37.495 10.01 37.495 9 38 C2.09339985 37.46969432 -2.80307274 35.53348973 -8 31 C-9 28 -9 28 -9.3125 25.4375 C-9.75449698 22.83446488 -9.75449698 22.83446488 -12.0625 21.6875 C-12.701875 21.460625 -13.34125 21.23375 -14 21 C-13.34 19.68 -12.68 18.36 -12 17 C-12.66 17 -13.32 17 -14 17 C-14.82834029 14.12367729 -15.1820994 12.50056549 -14.14453125 9.6484375 C-13.70496094 8.89820313 -13.26539062 8.14796875 -12.8125 7.375 C-12.38582031 6.61960937 -11.95914063 5.86421875 -11.51953125 5.0859375 C-8.22927945 0.56924222 -5.54955076 -0.4932934 0 0 Z " fill="#EC8D2D" transform="translate(112,27)"/>
<path d="M0 0 C0.5775 0.185625 1.155 0.37125 1.75 0.5625 C3.9554487 1.17186665 3.9554487 1.17186665 5.8828125 0.4375 C8.4945942 -0.10220397 9.69744323 0.39909644 12.125 1.4375 C14.96778254 2.67174773 14.96778254 2.67174773 18 3 C18.36630156 6.93774177 18.30233203 8.56539771 16 11.875 C15.34 12.57625 14.68 13.2775 14 14 C14.99 15.485 14.99 15.485 16 17 C15.125 20 15.125 20 14 23 C14 23.99 14 24.98 14 26 C14.66 26 15.32 26 16 26 C15.67 27.32 15.34 28.64 15 30 C15.99 30.33 16.98 30.66 18 31 C18 32.32 18 33.64 18 35 C16.68 34.67 15.36 34.34 14 34 C13.67 32.68 13.34 31.36 13 30 C11.68 30.33 10.36 30.66 9 31 C9.02320312 31.68707031 9.04640625 32.37414063 9.0703125 33.08203125 C9.09738281 34.43361328 9.09738281 34.43361328 9.125 35.8125 C9.14820312 36.70582031 9.17140625 37.59914062 9.1953125 38.51953125 C9 41 9 41 7 44 C7.66 44.33 8.32 44.66 9 45 C7.3125 46.5625 7.3125 46.5625 5 48 C2.25 47.6875 2.25 47.6875 0 47 C-0.33 45.35 -0.66 43.7 -1 42 C-1 43.32 -1 44.64 -1 46 C-5.10899581 44.87204037 -9.07561214 43.66489182 -13 42 C-13 41.34 -13 40.68 -13 40 C-12.38125 39.95875 -11.7625 39.9175 -11.125 39.875 C-10.42375 39.58625 -9.7225 39.2975 -9 39 C-7.80404463 36.1628485 -7.80404463 36.1628485 -7 33 C-6.34219247 31.66227377 -5.67453279 30.32937118 -5 29 C-4.31759536 27.36062948 -3.65158242 25.71436324 -3 24.0625 C-2.67 23.22847656 -2.34 22.39445312 -2 21.53515625 C-1.67 20.69855469 -1.34 19.86195312 -1 19 C-0.60167969 18.10925781 -0.20335938 17.21851562 0.20703125 16.30078125 C0.46871094 15.54152344 0.73039062 14.78226563 1 14 C0.04422943 12.63461347 -0.96352976 11.30518475 -2 10 C-2.6875 6.25 -2.6875 6.25 -3 3 C-2.34 2.67 -1.68 2.34 -1 2 C-0.67 1.34 -0.34 0.68 0 0 Z M0 38 C-0.33 38.99 -0.66 39.98 -1 41 C-0.34 41 0.32 41 1 41 C0.67 40.01 0.34 39.02 0 38 Z " fill="#FACA43" transform="translate(84,18)"/>
<path d="M0 0 C0.99 0.66 1.98 1.32 3 2 C4.134375 1.979375 5.26875 1.95875 6.4375 1.9375 C10 2 10 2 12.4375 3.375 C14 5 14 5 14 7 C14.66 7 15.32 7 16 7 C16 8.65 16 10.3 16 12 C11.545 12.495 11.545 12.495 7 13 C8.60875 13.061875 8.60875 13.061875 10.25 13.125 C14 14 14 14 16.4375 17.0625 C16.953125 18.031875 17.46875 19.00125 18 20 C17.401875 20.103125 16.80375 20.20625 16.1875 20.3125 C13.70138466 21.09385053 12.77056558 22.14895416 11 24 C10.34 24 9.68 24 9 24 C8.67 24.66 8.34 25.32 8 26 C0.25 26.125 0.25 26.125 -2 25 C-1.67 23.68 -1.34 22.36 -1 21 C-2.093125 21.185625 -3.18625 21.37125 -4.3125 21.5625 C-8 22 -8 22 -11 21 C-10.67 20.01 -10.34 19.02 -10 18 C-11.65 18.33 -13.3 18.66 -15 19 C-14.67 20.32 -14.34 21.64 -14 23 C-12.35 23.33 -10.7 23.66 -9 24 C-9.3125 25.9375 -9.3125 25.9375 -10 28 C-10.99 28.33 -11.98 28.66 -13 29 C-13.33 28.34 -13.66 27.68 -14 27 C-14.99 27 -15.98 27 -17 27 C-17 27.33 -17 27.66 -17 28 C-19.31 28 -21.62 28 -24 28 C-24 27.01 -24 26.02 -24 25 C-22.02 24.01 -20.04 23.02 -18 22 C-18 20.35 -18 18.7 -18 17 C-16.02 16.67 -14.04 16.34 -12 16 C-12.33 14.68 -12.66 13.36 -13 12 C-14.65 12.33 -16.3 12.66 -18 13 C-18.33 12.34 -18.66 11.68 -19 11 C-17.35 10.34 -15.7 9.68 -14 9 C-14.33 8.01 -14.66 7.02 -15 6 C-16.65 5.67 -18.3 5.34 -20 5 C-20 4.67 -20 4.34 -20 4 C-15.02548281 3.71300862 -12.84583699 3.9233304 -9 7 C-6.33238236 7.25124826 -6.33238236 7.25124826 -4 7 C-3.71125 6.401875 -3.4225 5.80375 -3.125 5.1875 C-2 3 -2 3 0 0 Z M-7 9 C-7.33 9.99 -7.66 10.98 -8 12 C-7.01 12 -6.02 12 -5 12 C-5 11.01 -5 10.02 -5 9 C-5.66 9 -6.32 9 -7 9 Z M7 9 C8 11 8 11 8 11 Z M-13 11 C-11.515 11.99 -11.515 11.99 -10 13 C-10 12.34 -10 11.68 -10 11 C-10.99 11 -11.98 11 -13 11 Z M-8 16 C-8 17.32 -8 18.64 -8 20 C-7.01 20 -6.02 20 -5 20 C-5 18.68 -5 17.36 -5 16 C-5.99 16 -6.98 16 -8 16 Z M-3 18 C-2 20 -2 20 -2 20 Z " fill="#9C933E" transform="translate(124,64)"/>
<path d="M0 0 C0.721875 0.144375 1.44375 0.28875 2.1875 0.4375 C5.19065047 1.03813009 7.94552036 1.07103441 11 1 C11 1.99 11 2.98 11 4 C9.02 4 7.04 4 5 4 C5 4.66 5 5.32 5 6 C8.465 5.505 8.465 5.505 12 5 C11.01 5.495 11.01 5.495 10 6 C10.99 7.32 11.98 8.64 13 10 C13 9.01 13 8.02 13 7 C13.66 6.34 14.32 5.68 15 5 C15.33 4.34 15.66 3.68 16 3 C18.7042391 1.85274705 20.36860102 1.75094818 23.109375 2.83203125 C25.10838654 3.83508137 27.06398001 4.88066338 29 6 C29 6.66 29 7.32 29 8 C29.66 8 30.32 8 31 8 C30.979375 8.721875 30.95875 9.44375 30.9375 10.1875 C30.90918608 12.97918204 30.90918608 12.97918204 31.5625 15.5625 C32.02583112 18.14391626 32.03122713 19.59380335 31 22 C30.01 22.33 29.02 22.66 28 23 C27.67 23.66 27.34 24.32 27 25 C26.34 25.33 25.68 25.66 25 26 C25 25.34 25 24.68 25 24 C24.236875 24 23.47375 24 22.6875 24 C20.79166667 24 18.89583333 24 17 24 C16.690625 23.360625 16.38125 22.72125 16.0625 22.0625 C15.1654837 20.06389179 15.1654837 20.06389179 14 19 C13.67 20.32 13.34 21.64 13 23 C9.04 23.33 5.08 23.66 1 24 C1 23.34 1 22.68 1 22 C0.34 22 -0.32 22 -1 22 C-1.11138159 16.54230189 -0.91657981 11.38490641 0 6 C-1.32 5.67 -2.64 5.34 -4 5 C-3.01 4.67 -2.02 4.34 -1 4 C-1 3.01 -1 2.02 -1 1 C-0.67 0.67 -0.34 0.34 0 0 Z M22 11 C22.33 11.99 22.66 12.98 23 14 C24.32 13.34 25.64 12.68 27 12 C25.35 11.67 23.7 11.34 22 11 Z M29 10 C28.34 10.66 27.68 11.32 27 12 C27.99 12 28.98 12 30 12 C29.67 11.34 29.34 10.68 29 10 Z M22 14 C23 16 23 16 23 16 Z " fill="#F2624D" transform="translate(51,63)"/>
<path d="M0 0 C1.48034764 0.47550561 2.95925021 0.95551216 4.4375 1.4375 C5.26121094 1.70433594 6.08492187 1.97117188 6.93359375 2.24609375 C9 3 9 3 10 4 C13.98947175 4.85925116 13.98947175 4.85925116 18 5 C19.3743291 3.70896357 20.70896357 2.3743291 22 1 C25.5 0.5 25.5 0.5 29 1 C29.58910156 1.6496875 30.17820313 2.299375 30.78515625 2.96875 C33.78155256 5.71676778 35.92425599 5.72588301 39.9375 6 C41.14277344 6.103125 42.34804687 6.20625 43.58984375 6.3125 C47.70570822 5.93533029 48.85496035 4.54551647 52 2 C55.41015625 1.5390625 55.41015625 1.5390625 59.0625 1.625 C60.27035156 1.63789062 61.47820312 1.65078125 62.72265625 1.6640625 C65.7709388 1.97652054 67.40177591 2.49987062 70 4 C70.66 4 71.32 4 72 4 C72.2165625 5.36125 72.2165625 5.36125 72.4375 6.75 C72.89910701 9.78625519 72.89910701 9.78625519 73.5390625 11.83203125 C74.53858126 16.5331576 74.03856335 21.34239381 73 26 C70.39575156 29.86090166 66.29956518 31.539291 62 33 C59.24609375 33.265625 59.24609375 33.265625 56.4375 33.25 C55.50808594 33.25515625 54.57867187 33.2603125 53.62109375 33.265625 C50.9445538 32.99438101 49.29561718 32.36116595 47 31 C47 30.34 47 29.68 47 29 C45.02 28.67 43.04 28.34 41 28 C41 27.67 41 27.34 41 27 C42.258125 26.95875 43.51625 26.9175 44.8125 26.875 C45.52019531 26.85179688 46.22789063 26.82859375 46.95703125 26.8046875 C49 27 49 27 52 29 C57.24851279 29.67980737 62.13798584 29.1345428 67 27 C70.01196522 23.98803478 69.96147992 21.71904144 70.1875 17.5 C70.0108962 14.20339572 69.66416978 12.74098552 68 10 C67.505 8.515 67.505 8.515 67 7 C66.505 6.01 66.505 6.01 66 5 C64.68 5.33 63.36 5.66 62 6 C62 5.34 62 4.68 62 4 C54.97535171 4.03314446 54.97535171 4.03314446 49.1875 7.5625 C48.465625 8.366875 47.74375 9.17125 47 10 C44.25 10.375 44.25 10.375 42 10 C41.505 9.505 41.505 9.505 41 9 C39.22835688 9.03221169 37.45731197 9.10076749 35.6875 9.1875 C30.31993945 9.27071799 30.31993945 9.27071799 27.5625 6.9375 C27.046875 6.298125 26.53125 5.65875 26 5 C23.78141747 5.13641377 23.78141747 5.13641377 22 6 C24.475 6.495 24.475 6.495 27 7 C25.68 7.33 24.36 7.66 23 8 C22.67 11.3 22.34 14.6 22 18 C20.35 17.01 18.7 16.02 17 15 C16.67 17.97 16.34 20.94 16 24 C14.35 24.33 12.7 24.66 11 25 C9.89625098 21.68875294 10.09252361 19.5842365 10.3125 16.125 C10.37373657 11.92775606 10.37373657 11.92775606 8.984375 8.06640625 C6.83045084 5.9775732 4.71946084 5.04224813 1.73828125 4.8671875 C-1.53415574 5.13763684 -4.18111959 5.56620647 -7.1015625 7.11328125 C-9 8 -9 8 -11.75 7.125 C-12.4925 6.75375 -13.235 6.3825 -14 6 C-14 5.67 -14 5.34 -14 5 C-10.535 4.505 -10.535 4.505 -7 4 C-7 3.34 -7 2.68 -7 2 C-4.69 2 -2.38 2 0 2 C0 1.34 0 0.68 0 0 Z M12 9 C12 9.33 12 9.66 12 10 C14.97 10.33 17.94 10.66 21 11 C21.33 10.01 21.66 9.02 22 8 C18.58900832 8 15.36911686 8.49145406 12 9 Z " fill="#C9C6BA" transform="translate(72,60)"/>
<path d="M0 0 C1.21042969 -0.020625 2.42085937 -0.04125 3.66796875 -0.0625 C4.82683594 -0.06765625 5.98570313 -0.0728125 7.1796875 -0.078125 C8.24687012 -0.0874707 9.31405273 -0.09681641 10.41357422 -0.10644531 C13.125 0.25 13.125 0.25 14.99658203 1.77050781 C15.36895996 2.25874023 15.74133789 2.74697266 16.125 3.25 C14.25 9.125 14.25 9.125 13.125 10.25 C14.115 10.58 15.105 10.91 16.125 11.25 C16.455 12.9 16.785 14.55 17.125 16.25 C16.135 16.58 15.145 16.91 14.125 17.25 C15.445 18.24 16.765 19.23 18.125 20.25 C17.26785714 28.82142857 17.26785714 28.82142857 15.125 32.25 C13.09010825 31.74127706 11.0704063 31.23345646 9.0625 30.625 C6.91958748 30.04583936 6.91958748 30.04583936 4.125 31.25 C4.125 29.93 4.125 28.61 4.125 27.25 C2.805 26.59 1.485 25.93 0.125 25.25 C1.115 24.26 2.105 23.27 3.125 22.25 C2.795 21.1775 2.465 20.105 2.125 19 C1.125 15.25 1.125 15.25 1.125 11.25 C2.115 10.92 3.105 10.59 4.125 10.25 C-1.815 9.59 -7.755 8.93 -13.875 8.25 C-13.875 -2.84592605 -9.59344203 0.04060716 0 0 Z M15.125 24.25 C14.795 24.91 14.465 25.57 14.125 26.25 C14.785 26.91 15.445 27.57 16.125 28.25 C15.795 26.93 15.465 25.61 15.125 24.25 Z " fill="#F4F9FC" transform="translate(32.875,51.75)"/>
<path d="M0 0 C1.56697685 0.05378811 3.1315676 0.18105778 4.69140625 0.33984375 C5.63564453 0.43330078 6.57988281 0.52675781 7.55273438 0.62304688 C8.54595703 0.72681641 9.53917969 0.83058594 10.5625 0.9375 C11.55958984 1.03740234 12.55667969 1.13730469 13.58398438 1.24023438 C16.05651841 1.48867081 18.52843344 1.74214406 21 2 C17.99112219 3.58158962 15.36327963 4.43945339 12 5 C12 4.34 12 3.68 12 3 C11.34 3 10.68 3 10 3 C10 5.64 10 8.28 10 11 C8.68 11.33 7.36 11.66 6 12 C6.33 13.65 6.66 15.3 7 17 C8.65 17.33 10.3 17.66 12 18 C12 18.66 12 19.32 12 20 C8.04 20 4.08 20 0 20 C-0.33 20.99 -0.66 21.98 -1 23 C-1.99 23.33 -2.98 23.66 -4 24 C-4.66 24.99 -5.32 25.98 -6 27 C-6.99 27 -7.98 27 -9 27 C-8.67 26.34 -8.34 25.68 -8 25 C-9.32 24.67 -10.64 24.34 -12 24 C-12.02688151 22.35425434 -12.04634123 20.70838587 -12.0625 19.0625 C-12.07410156 18.14597656 -12.08570313 17.22945312 -12.09765625 16.28515625 C-12 14 -12 14 -11 13 C-9.31391034 12.92794489 -7.62499341 12.91613932 -5.9375 12.9375 C-5.01839844 12.94652344 -4.09929688 12.95554687 -3.15234375 12.96484375 C-2.44207031 12.97644531 -1.73179688 12.98804687 -1 13 C-1.01160156 12.14535156 -1.02320313 11.29070312 -1.03515625 10.41015625 C-1.04417969 9.30542969 -1.05320312 8.20070313 -1.0625 7.0625 C-1.07410156 5.96035156 -1.08570313 4.85820313 -1.09765625 3.72265625 C-1 1 -1 1 0 0 Z " fill="#8F9D60" transform="translate(20,59)"/>
<path d="M0 0 C7.65625 -0.296875 7.65625 -0.296875 10.75 2.375 C11.86375 3.674375 11.86375 3.674375 13 5 C14.11375 5.4640625 14.11375 5.4640625 15.25 5.9375 C17 7 17 7 17.75 9.5625 C18.67313019 22.25554017 18.67313019 22.25554017 15 27 C14.67 26.01 14.34 25.02 14 24 C12.68 24 11.36 24 10 24 C8.62150897 22.71340837 7.29470975 21.37086915 6 20 C4.97390625 19.46375 3.9478125 18.9275 2.890625 18.375 C0 16 0 16 -0.5859375 12.109375 C-0.5462752 10.65509063 -0.47500701 9.20138372 -0.375 7.75 C-0.34792969 7.00492188 -0.32085937 6.25984375 -0.29296875 5.4921875 C-0.22250808 3.66021007 -0.11488993 1.82972849 0 0 Z " fill="#F59330" transform="translate(118,30)"/>
<path d="M0 0 C3.01756659 0.20574318 5.07787341 0.77721097 7.75 2.1875 C8.08 3.1775 8.41 4.1675 8.75 5.1875 C7.76 5.8475 6.77 6.5075 5.75 7.1875 C6.74 7.8475 7.73 8.5075 8.75 9.1875 C8.75 10.5075 8.75 11.8275 8.75 13.1875 C10.07 12.5275 11.39 11.8675 12.75 11.1875 C13.41 11.8475 14.07 12.5075 14.75 13.1875 C14.09 14.8375 13.43 16.4875 12.75 18.1875 C14.07 18.5175 15.39 18.8475 16.75 19.1875 C13.12 18.8575 9.49 18.5275 5.75 18.1875 C5.75 17.8575 5.75 17.5275 5.75 17.1875 C7.73 17.1875 9.71 17.1875 11.75 17.1875 C11.75 16.5275 11.75 15.8675 11.75 15.1875 C8.78 14.8575 5.81 14.5275 2.75 14.1875 C2.75 17.8175 2.75 21.4475 2.75 25.1875 C-1.74571996 26.08664399 -3.93714354 26.16769465 -8.25 25.1875 C-9.25 24.1875 -9.25 24.1875 -9.34765625 21.68359375 C-9.33605469 20.67425781 -9.32445312 19.66492188 -9.3125 18.625 C-9.30347656 17.61308594 -9.29445313 16.60117188 -9.28515625 15.55859375 C-9.27355469 14.77613281 -9.26195312 13.99367188 -9.25 13.1875 C-10.24 12.8575 -11.23 12.5275 -12.25 12.1875 C-11.26 11.8575 -10.27 11.5275 -9.25 11.1875 C-8.92 10.5275 -8.59 9.8675 -8.25 9.1875 C-4.29 9.1875 -0.33 9.1875 3.75 9.1875 C3.42 8.5275 3.09 7.8675 2.75 7.1875 C2.110625 7.084375 1.47125 6.98125 0.8125 6.875 C0.131875 6.648125 -0.54875 6.42125 -1.25 6.1875 C-2.5 3.625 -2.5 3.625 -3.25 1.1875 C-2.25 0.1875 -2.25 0.1875 0 0 Z " fill="#829A5E" transform="translate(28.25,69.8125)"/>
<path d="M0 0 C0.721875 0.144375 1.44375 0.28875 2.1875 0.4375 C5.19065047 1.03813009 7.94552036 1.07103441 11 1 C11 1.99 11 2.98 11 4 C9.02 4 7.04 4 5 4 C5 4.66 5 5.32 5 6 C8.465 5.505 8.465 5.505 12 5 C11.01 5.495 11.01 5.495 10 6 C10.66 6.515625 11.32 7.03125 12 7.5625 C14.71398369 10.87016762 14.36167041 12.80462327 14 17 C13.70814937 19.0064731 13.38830401 21.00994193 13 23 C9.04 23.33 5.08 23.66 1 24 C1 23.34 1 22.68 1 22 C0.34 22 -0.32 22 -1 22 C-1.11138159 16.54230189 -0.91657981 11.38490641 0 6 C-1.32 5.67 -2.64 5.34 -4 5 C-3.01 4.67 -2.02 4.34 -1 4 C-1 3.01 -1 2.02 -1 1 C-0.67 0.67 -0.34 0.34 0 0 Z " fill="#A95F1B" transform="translate(51,63)"/>
<path d="M0 0 C0.33 0.66 0.66 1.32 1 2 C3.80980673 2.69227032 3.80980673 2.69227032 7.0625 3.125 C8.16722656 3.29257812 9.27195312 3.46015625 10.41015625 3.6328125 C11.26480469 3.75398438 12.11945313 3.87515625 13 4 C13.05416188 5.60379341 13.09286638 7.20811406 13.125 8.8125 C13.14820312 9.70582031 13.17140625 10.59914063 13.1953125 11.51953125 C13 14 13 14 11 17 C11.66 17.33 12.32 17.66 13 18 C11.3125 19.5625 11.3125 19.5625 9 21 C6.25 20.6875 6.25 20.6875 4 20 C3.67 18.35 3.34 16.7 3 15 C3 16.32 3 17.64 3 19 C-1.10899581 17.87204037 -5.07561214 16.66489182 -9 15 C-9 14.34 -9 13.68 -9 13 C-8.38125 12.95875 -7.7625 12.9175 -7.125 12.875 C-6.42375 12.58625 -5.7225 12.2975 -5 12 C-3.80404463 9.1628485 -3.80404463 9.1628485 -3 6 C-2.36345658 4.6520257 -1.70394612 3.31403276 -1 2 C-0.67 1.34 -0.34 0.68 0 0 Z M4 11 C3.67 11.99 3.34 12.98 3 14 C3.66 14 4.32 14 5 14 C4.67 13.01 4.34 12.02 4 11 Z " fill="#D44A10" transform="translate(80,45)"/>
<path d="M0 0 C2.3125 0.8125 2.3125 0.8125 3.3125 2.8125 C4.36359614 14.6598551 4.36359614 14.6598551 2.3359375 18.8125 C0.07032124 21.14761369 -2.44860785 22.61006924 -5.6875 22.8125 C-8.4375 22.375 -8.4375 22.375 -10.6875 21.8125 C-10.0275 20.1625 -9.3675 18.5125 -8.6875 16.8125 C-9.3475 16.8125 -10.0075 16.8125 -10.6875 16.8125 C-11.51584029 13.93617729 -11.8695994 12.31306549 -10.83203125 9.4609375 C-10.39246094 8.71070313 -9.95289062 7.96046875 -9.5 7.1875 C-9.07332031 6.43210937 -8.64664063 5.67671875 -8.20703125 4.8984375 C-5.86715727 1.686374 -4.08516336 -0.2850114 0 0 Z " fill="#EEE5DB" transform="translate(108.6875,27.1875)"/>
<path d="M0 0 C4.97451719 -0.28699138 7.15416301 -0.0766696 11 3 C12.66619446 3.0396713 14.33391013 3.04384447 16 3 C16.66 3.66 17.32 4.32 18 5 C17.6913753 7.33672984 17.35543427 9.66993089 17 12 C17.291224 13.67453799 17.61070799 15.34550895 18 17 C17 18 17 18 13.4375 18.0625 C12.303125 18.041875 11.16875 18.02125 10 18 C9.67 17.34 9.34 16.68 9 16 C9.33 15.34 9.66 14.68 10 14 C8.35 14.33 6.7 14.66 5 15 C5.33 16.32 5.66 17.64 6 19 C7.65 19.33 9.3 19.66 11 20 C10.6875 21.9375 10.6875 21.9375 10 24 C9.01 24.33 8.02 24.66 7 25 C6.67 24.34 6.34 23.68 6 23 C5.01 23 4.02 23 3 23 C3 23.33 3 23.66 3 24 C0.69 24 -1.62 24 -4 24 C-4 23.01 -4 22.02 -4 21 C-2.02 20.01 -0.04 19.02 2 18 C2 16.35 2 14.7 2 13 C3.98 12.67 5.96 12.34 8 12 C7.67 10.68 7.34 9.36 7 8 C5.35 8.33 3.7 8.66 2 9 C1.67 8.34 1.34 7.68 1 7 C2.65 6.34 4.3 5.68 6 5 C5.67 4.01 5.34 3.02 5 2 C3.35 1.67 1.7 1.34 0 1 C0 0.67 0 0.34 0 0 Z M13 5 C12.67 5.99 12.34 6.98 12 8 C12.99 8 13.98 8 15 8 C15 7.01 15 6.02 15 5 C14.34 5 13.68 5 13 5 Z M7 7 C8.485 7.99 8.485 7.99 10 9 C10 8.34 10 7.68 10 7 C9.01 7 8.02 7 7 7 Z M12 12 C12 13.32 12 14.64 12 16 C12.99 16 13.98 16 15 16 C15 14.68 15 13.36 15 12 C14.01 12 13.02 12 12 12 Z " fill="#373533" transform="translate(104,68)"/>
<path d="M0 0 C3.10996248 3.10996248 3.57233759 6.72337589 4 11 C3.1875 13.8125 3.1875 13.8125 2 16 C1.01 16.495 1.01 16.495 0 17 C-0.99 16.34 -1.98 15.68 -3 15 C-1.68 14.34 -0.36 13.68 1 13 C-0.12697043 8.03088634 -0.12697043 8.03088634 -3 4 C-11.67445552 2.15266225 -22.58534867 2.19511622 -31 5 C-30.67 5.66 -30.34 6.32 -30 7 C-30.08938418 9.88912732 -30.234048 12.74393255 -30.4375 15.625 C-30.48970703 16.42679688 -30.54191406 17.22859375 -30.59570312 18.0546875 C-30.72548371 20.03679103 -30.86209735 22.01844499 -31 24 C-31.66 23.01 -32.32 22.02 -33 21 C-36.58357241 20.74984127 -36.58357241 20.74984127 -40 21 C-40 20.67 -40 20.34 -40 20 C-38.02 20 -36.04 20 -34 20 C-34 14.06 -34 8.12 -34 2 C-30.57425402 0.28712701 -29.37885224 -0.25954957 -25.83984375 -0.44921875 C-24.65636353 -0.51532349 -24.65636353 -0.51532349 -23.44897461 -0.58276367 C-22.62018799 -0.61732666 -21.79140137 -0.65188965 -20.9375 -0.6875 C-20.09002197 -0.72657471 -19.24254395 -0.76564941 -18.36938477 -0.8059082 C-5.62215622 -1.3061575 -5.62215622 -1.3061575 0 0 Z " fill="#A6A49F" transform="translate(49,47)"/>
<path d="M0 0 C4.02809304 1.30660365 7.2246206 1.02538688 11.1796875 -0.29296875 C11.7365625 -0.14859375 12.2934375 -0.00421875 12.8671875 0.14453125 C17.41797748 1.25148016 21.63313741 1.24237551 26.0234375 -0.27734375 C29.41702036 -1.36933823 32.24692044 -1.65964669 35.8046875 -1.73046875 C37.46371094 -1.79041016 37.46371094 -1.79041016 39.15625 -1.8515625 C43.11097248 -1.12090964 43.87558017 0.54074182 46.1796875 3.70703125 C50.36949856 4.16410155 54.09792762 3.6965488 58.1796875 2.70703125 C57.5196875 3.69703125 56.8596875 4.68703125 56.1796875 5.70703125 C55.5196875 5.70703125 54.8596875 5.70703125 54.1796875 5.70703125 C53.8496875 6.36703125 53.5196875 7.02703125 53.1796875 7.70703125 C50.2096875 7.70703125 47.2396875 7.70703125 44.1796875 7.70703125 C43.6846875 6.22203125 43.6846875 6.22203125 43.1796875 4.70703125 C42.5196875 4.70703125 41.8596875 4.70703125 41.1796875 4.70703125 C41.1796875 3.71703125 41.1796875 2.72703125 41.1796875 1.70703125 C36.5596875 1.70703125 31.9396875 1.70703125 27.1796875 1.70703125 C27.1796875 2.36703125 27.1796875 3.02703125 27.1796875 3.70703125 C25.24371858 3.92914241 23.30579422 4.13426117 21.3671875 4.33203125 C19.74876953 4.50605469 19.74876953 4.50605469 18.09765625 4.68359375 C15.1796875 4.70703125 15.1796875 4.70703125 12.1796875 2.70703125 C9.83955406 3.34942082 7.50717444 4.02023183 5.1796875 4.70703125 C2.48417509 4.87667888 -0.1155848 4.80193398 -2.8203125 4.70703125 C-3.1503125 4.04703125 -3.4803125 3.38703125 -3.8203125 2.70703125 C-5.93877535 2.01973871 -5.93877535 2.01973871 -8.3828125 1.58203125 C-9.20910156 1.41445312 -10.03539062 1.246875 -10.88671875 1.07421875 C-11.52480469 0.95304687 -12.16289063 0.831875 -12.8203125 0.70703125 C-12.8203125 0.04703125 -12.8203125 -0.61296875 -12.8203125 -1.29296875 C-7.76449091 -2.71896971 -4.73055193 -1.74409238 0 0 Z " fill="#A09E9A" transform="translate(53.8203125,87.29296875)"/>
<path d="M0 0 C3 2 3 2 5 5 C5.33229544 9.30279999 4.28905422 13.33751325 2 17 C-0.03489175 16.49127706 -2.0545937 15.98345646 -4.0625 15.375 C-6.20541252 14.79583936 -6.20541252 14.79583936 -9 16 C-9 14.68 -9 13.36 -9 12 C-10.32 11.34 -11.64 10.68 -13 10 C-12.484375 9.608125 -11.96875 9.21625 -11.4375 8.8125 C-10.963125 8.214375 -10.48875 7.61625 -10 7 C-10.23043864 4.34533951 -10.23043864 4.34533951 -11 2 C-7.33755697 -0.34396354 -4.27605847 -0.52512999 0 0 Z M2 9 C1.67 9.66 1.34 10.32 1 11 C1.66 11.66 2.32 12.32 3 13 C2.67 11.68 2.34 10.36 2 9 Z " fill="#D735DB" transform="translate(46,67)"/>
<path d="M0 0 C0.86625 0.2784375 0.86625 0.2784375 1.75 0.5625 C3.9554487 1.17186665 3.9554487 1.17186665 5.8828125 0.4375 C8.4945942 -0.10220397 9.69744323 0.39909644 12.125 1.4375 C14.96778254 2.67174773 14.96778254 2.67174773 18 3 C18.3125 5.75 18.3125 5.75 18 9 C15.5 11.375 15.5 11.375 13 13 C12.67 12.01 12.34 11.02 12 10 C9.89415562 9.19436362 9.89415562 9.19436362 7.4375 8.8125 C6.61121094 8.65394531 5.78492187 8.49539062 4.93359375 8.33203125 C4.29550781 8.22246094 3.65742187 8.11289062 3 8 C3 8.66 3 9.32 3 10 C1.35 10 -0.3 10 -2 10 C-2.33 7.69 -2.66 5.38 -3 3 C-2.34 2.67 -1.68 2.34 -1 2 C-0.67 1.34 -0.34 0.68 0 0 Z " fill="#3C201C" transform="translate(84,18)"/>
<path d="M0 0 C0.144375 0.9075 0.28875 1.815 0.4375 2.75 C0.89910701 5.78625519 0.89910701 5.78625519 1.5390625 7.83203125 C2.53858126 12.5331576 2.03856335 17.34239381 1 22 C-1.60424844 25.86090166 -5.70043482 27.539291 -10 29 C-12.75390625 29.265625 -12.75390625 29.265625 -15.5625 29.25 C-16.49191406 29.25515625 -17.42132813 29.2603125 -18.37890625 29.265625 C-21.0554462 28.99438101 -22.70438282 28.36116595 -25 27 C-25 26.34 -25 25.68 -25 25 C-26.98 24.67 -28.96 24.34 -31 24 C-31 23.67 -31 23.34 -31 23 C-29.741875 22.95875 -28.48375 22.9175 -27.1875 22.875 C-26.47980469 22.85179688 -25.77210937 22.82859375 -25.04296875 22.8046875 C-23 23 -23 23 -20 25 C-14.75148721 25.67980737 -9.86201416 25.1345428 -5 23 C-1.98803478 19.98803478 -2.03852008 17.71904144 -1.8125 13.5 C-1.9891038 10.20339572 -2.33583022 8.74098552 -4 6 C-4.33 5.01 -4.66 4.02 -5 3 C-5.33 2.34 -5.66 1.68 -6 1 C-7.32 1.33 -8.64 1.66 -10 2 C-10 1.34 -10 0.68 -10 0 C-6.42355152 -1.2380014 -3.66305234 -0.74926071 0 0 Z " fill="#868481" transform="translate(144,64)"/>
<path d="M0 0 C0.33 0 0.66 0 1 0 C1 1.65 1 3.3 1 5 C1.66 5 2.32 5 3 5 C3 4.01 3 3.02 3 2 C6.25 1.625 6.25 1.625 10 2 C12.4375 5 12.4375 5 14 8 C13.401875 8.103125 12.80375 8.20625 12.1875 8.3125 C9.70138466 9.09385053 8.77056558 10.14895416 7 12 C6.34 12 5.68 12 5 12 C4.67 12.66 4.34 13.32 4 14 C-3.75 14.125 -3.75 14.125 -6 13 C-5.34 10.03 -4.68 7.06 -4 4 C-3.01 4 -2.02 4 -1 4 C-0.67 2.68 -0.34 1.36 0 0 Z " fill="#C4AD11" transform="translate(128,76)"/>
<path d="M0 0 C0 2.64 0 5.28 0 8 C-1.32 8.33 -2.64 8.66 -4 9 C-3.67 10.65 -3.34 12.3 -3 14 C-1.35 14.33 0.3 14.66 2 15 C2 15.66 2 16.32 2 17 C0.04196493 17.05389087 -1.91648909 17.09274217 -3.875 17.125 C-5.51082031 17.15980469 -5.51082031 17.15980469 -7.1796875 17.1953125 C-10 17 -10 17 -12 15 C-12 13.68 -12 12.36 -12 11 C-11.34 11 -10.68 11 -10 11 C-9.67 7.7 -9.34 4.4 -9 1 C-2.25 0 -2.25 0 0 0 Z " fill="#F4ECDC" transform="translate(30,62)"/>
<path d="M0 0 C0.680625 0.391875 1.36125 0.78375 2.0625 1.1875 C2.0625 1.8475 2.0625 2.5075 2.0625 3.1875 C2.7225 3.1875 3.3825 3.1875 4.0625 3.1875 C3.7325 4.5075 3.4025 5.8275 3.0625 7.1875 C0.22282769 7.1875 -2.17485711 6.78482819 -4.9375 6.1875 C-3.9475 7.6725 -3.9475 7.6725 -2.9375 9.1875 C-3.3125 11.375 -3.3125 11.375 -3.9375 13.1875 C-6.2475 13.1875 -8.5575 13.1875 -10.9375 13.1875 C-12.12306701 7.02255155 -12.12306701 7.02255155 -11.4375 3.9375 C-8.35912254 0.34605963 -4.56344393 -1.26222917 0 0 Z M-4.9375 9.1875 C-3.9375 11.1875 -3.9375 11.1875 -3.9375 11.1875 Z " fill="#AE1B3B" transform="translate(77.9375,67.8125)"/>
<path d="M0 0 C-0.25 1.875 -0.25 1.875 -1 4 C-3.0625 5.25 -3.0625 5.25 -5 6 C-3.35 6 -1.7 6 0 6 C0.33 7.32 0.66 8.64 1 10 C-0.98 10.33 -2.96 10.66 -5 11 C-4.67 12.65 -4.34 14.3 -4 16 C-5.65 16.66 -7.3 17.32 -9 18 C-11.0662997 12.28728907 -11.0006709 7.96345767 -10 2 C-6.49223216 0.39644899 -3.85645121 -0.22036864 0 0 Z " fill="#C26F6A" transform="translate(111,70)"/>
<path d="M0 0 C2.86724686 0.57344937 3.8614515 0.8614515 6 3 C4.125 8.875 4.125 8.875 3 10 C3.99 10.33 4.98 10.66 6 11 C6.33 12.65 6.66 14.3 7 16 C2.05 16 -2.9 16 -8 16 C-8.66 14.68 -9.32 13.36 -10 12 C-8.9275 11.566875 -7.855 11.13375 -6.75 10.6875 C-3.83727354 9.44678487 -1.43963834 8.04929621 1 6 C0.16666667 3.83333333 0.16666667 3.83333333 -2 3 C-1.34 2.01 -0.68 1.02 0 0 Z " fill="#D1CDC9" transform="translate(43,52)"/>
<path d="M0 0 C1.85772162 0.08984301 3.71247985 0.24611861 5.5625 0.4375 C7.08037109 0.59025391 7.08037109 0.59025391 8.62890625 0.74609375 C9.80259766 0.87177734 9.80259766 0.87177734 11 1 C10.67 3.31 10.34 5.62 10 8 C8.68 7.34 7.36 6.68 6 6 C5.67 8.97 5.34 11.94 5 15 C3.35 15.33 1.7 15.66 0 16 C-1.08489672 12.74530985 -1.13323992 10.29456791 -1.125 6.875 C-1.12757812 5.79992187 -1.13015625 4.72484375 -1.1328125 3.6171875 C-1 1 -1 1 0 0 Z " fill="#6D64E7" transform="translate(83,69)"/>
<path d="M0 0 C2.31 0 4.62 0 7 0 C7 0.66 7 1.32 7 2 C5.68 2 4.36 2 3 2 C3 4.64 3 7.28 3 10 C1.68942607 10.36122881 0.37646376 10.71380311 -0.9375 11.0625 C-2.03384766 11.35833984 -2.03384766 11.35833984 -3.15234375 11.66015625 C-3.76207031 11.77230469 -4.37179688 11.88445312 -5 12 C-5.33 11.67 -5.66 11.34 -6 11 C-9.08434172 11.22258136 -12.14312594 11.5862732 -15.21484375 11.94140625 C-16.13394531 11.96074219 -17.05304687 11.98007813 -18 12 C-20 10 -20 10 -21 8 C-20.34 8 -19.68 8 -19 8 C-19 6.35 -19 4.7 -19 3 C-18.67 3 -18.34 3 -18 3 C-17.67 4.65 -17.34 6.3 -17 8 C-14.70858714 8.05384521 -12.41681812 8.09272087 -10.125 8.125 C-8.84882813 8.14820312 -7.57265625 8.17140625 -6.2578125 8.1953125 C-2.91406662 8.35641524 -2.91406662 8.35641524 -1 6 C-0.60235737 4.01178687 -0.26224651 2.01055661 0 0 Z " fill="#D1CECA" transform="translate(33,88)"/>
<path d="M0 0 C0.66 0 1.32 0 2 0 C2.05416188 1.60379341 2.09286638 3.20811406 2.125 4.8125 C2.14820312 5.70582031 2.17140625 6.59914063 2.1953125 7.51953125 C2 10 2 10 0 13 C0.66 13.33 1.32 13.66 2 14 C0.3125 15.5625 0.3125 15.5625 -2 17 C-4.75 16.6875 -4.75 16.6875 -7 16 C-7.33 14.02 -7.66 12.04 -8 10 C-7.34 10 -6.68 10 -6 10 C-6 9.01 -6 8.02 -6 7 C-4.5625 5.4375 -4.5625 5.4375 -3 4 C-2.67 3.34 -2.34 2.68 -2 2 C-1.34 2 -0.68 2 0 2 C0 1.34 0 0.68 0 0 Z " fill="#C64D17" transform="translate(91,49)"/>
<path d="M0 0 C1.85625 0.061875 1.85625 0.061875 3.75 0.125 C3.75 0.455 3.75 0.785 3.75 1.125 C6.39 1.455 9.03 1.785 11.75 2.125 C11.75 2.455 11.75 2.785 11.75 3.125 C10.77417969 3.18558594 9.79835938 3.24617188 8.79296875 3.30859375 C6.88451172 3.43427734 6.88451172 3.43427734 4.9375 3.5625 C3.67292969 3.64371094 2.40835937 3.72492187 1.10546875 3.80859375 C-2.24181893 3.99684547 -2.24181893 3.99684547 -5.25 5.125 C-4.92 5.785 -4.59 6.445 -4.25 7.125 C-4.33938418 10.01412732 -4.484048 12.86893255 -4.6875 15.75 C-4.73970703 16.55179688 -4.79191406 17.35359375 -4.84570312 18.1796875 C-4.97548371 20.16179103 -5.11209735 22.14344499 -5.25 24.125 C-5.91 23.135 -6.57 22.145 -7.25 21.125 C-10.83357241 20.87484127 -10.83357241 20.87484127 -14.25 21.125 C-14.25 20.795 -14.25 20.465 -14.25 20.125 C-12.27 20.125 -10.29 20.125 -8.25 20.125 C-8.25 14.185 -8.25 8.245 -8.25 2.125 C-4.63863788 0.31931894 -3.705469 -0.12351563 0 0 Z " fill="#646260" transform="translate(23.25,46.875)"/>
<path d="M0 0 C1.65 0.33 3.3 0.66 5 1 C4.814375 1.5775 4.62875 2.155 4.4375 2.75 C3.95976454 5.20692525 4.24270636 6.64397534 5 9 C6.32 9.33 7.64 9.66 9 10 C9 10.99 9 11.98 9 13 C7.56208484 12.85831863 6.1246763 12.71148957 4.6875 12.5625 C3.88699219 12.48128906 3.08648437 12.40007813 2.26171875 12.31640625 C0 12 0 12 -3 11 C-2.44894091 7.0507432 -1.61064629 3.65079826 0 0 Z " fill="#F9CC46" transform="translate(84,36)"/>
<path d="M0 0 C0.66 0 1.32 0 2 0 C2.33 1.65 2.66 3.3 3 5 C1.35 5.66 -0.3 6.32 -2 7 C-1.67 8.32 -1.34 9.64 -1 11 C0.65 11.33 2.3 11.66 4 12 C3.6875 13.9375 3.6875 13.9375 3 16 C2.01 16.33 1.02 16.66 0 17 C-0.33 16.34 -0.66 15.68 -1 15 C-1.99 15 -2.98 15 -4 15 C-4 15.33 -4 15.66 -4 16 C-6.31 16 -8.62 16 -11 16 C-11 15.01 -11 14.02 -11 13 C-9.02 12.01 -7.04 11.02 -5 10 C-5 8.35 -5 6.7 -5 5 C-3.02 4.67 -1.04 4.34 1 4 C0.67 2.68 0.34 1.36 0 0 Z " fill="#4D3C37" transform="translate(111,76)"/>
<path d="M0 0 C6.35051546 -0.36637589 6.35051546 -0.36637589 9.4375 1.375 C11 3 11 3 11 5 C11.66 5 12.32 5 13 5 C13 6.65 13 8.3 13 10 C10.36 10.33 7.72 10.66 5 11 C4.67 10.01 4.34 9.02 4 8 C3.67 7.34 3.34 6.68 3 6 C3.66 6 4.32 6 5 6 C5 5.01 5 4.02 5 3 C2.69 3.33 0.38 3.66 -2 4 C-2 3.34 -2 2.68 -2 2 C-1.34 2 -0.68 2 0 2 C0 1.34 0 0.68 0 0 Z " fill="#C1B651" transform="translate(127,66)"/>
<path d="M0 0 C2.00841268 0.01421885 4.01537247 0.13420475 6.01953125 0.265625 C6.01953125 1.255625 6.01953125 2.245625 6.01953125 3.265625 C6.67953125 3.265625 7.33953125 3.265625 8.01953125 3.265625 C7.68953125 4.585625 7.35953125 5.905625 7.01953125 7.265625 C8.00953125 7.595625 8.99953125 7.925625 10.01953125 8.265625 C10.01953125 9.585625 10.01953125 10.905625 10.01953125 12.265625 C8.69953125 11.935625 7.37953125 11.605625 6.01953125 11.265625 C5.68953125 9.945625 5.35953125 8.625625 5.01953125 7.265625 C3.69953125 7.595625 2.37953125 7.925625 1.01953125 8.265625 C1.01953125 7.275625 1.01953125 6.285625 1.01953125 5.265625 C-1.95046875 4.770625 -1.95046875 4.770625 -4.98046875 4.265625 C-3.72152968 1.74774686 -2.88459378 0.38688832 0 0 Z " fill="#D08F60" transform="translate(91.98046875,40.734375)"/>
<path d="M0 0 C0.33 0.99 0.66 1.98 1 3 C-2.49868031 6.88742257 -5.49117606 8.75801414 -10.75390625 9.265625 C-11.68074219 9.26046875 -12.60757813 9.2553125 -13.5625 9.25 C-14.49191406 9.25515625 -15.42132813 9.2603125 -16.37890625 9.265625 C-19.0554462 8.99438101 -20.70438282 8.36116595 -23 7 C-23 6.34 -23 5.68 -23 5 C-25.97 4.505 -25.97 4.505 -29 4 C-29 3.67 -29 3.34 -29 3 C-27.741875 2.95875 -26.48375 2.9175 -25.1875 2.875 C-24.47980469 2.85179688 -23.77210937 2.82859375 -23.04296875 2.8046875 C-21 3 -21 3 -18 5 C-12.77514978 5.6767425 -7.81913723 5.18008589 -3 3 C-1.16310524 1.50113129 -1.16310524 1.50113129 0 0 Z " fill="#B2AFAA" transform="translate(142,84)"/>
<path d="M0 0 C0.99 0.33 1.98 0.66 3 1 C3 2.98 3 4.96 3 7 C3.804375 7 4.60875 7 5.4375 7 C7.29166667 7 9.14583333 7 11 7 C11.33 8.65 11.66 10.3 12 12 C8.0222139 13.05294338 5.00768083 12.91083655 1 12 C0 11 0 11 -0.09765625 8.49609375 C-0.08605469 7.48675781 -0.07445313 6.47742188 -0.0625 5.4375 C-0.05347656 4.42558594 -0.04445313 3.41367188 -0.03515625 2.37109375 C-0.02355469 1.58863281 -0.01195313 0.80617188 0 0 Z " fill="#757B40" transform="translate(19,83)"/>
<path d="M0 0 C1.46224799 0.42423244 2.91973412 0.86490245 4.375 1.3125 C5.18710938 1.55613281 5.99921875 1.79976562 6.8359375 2.05078125 C9 3 9 3 11 6 C10.01 6.66 9.02 7.32 8 8 C7.525625 7.484375 7.05125 6.96875 6.5625 6.4375 C2.71550052 4.27942712 -0.79804729 5.01609206 -5 6 C-5.69609375 6.36480469 -6.3921875 6.72960937 -7.109375 7.10546875 C-9 8 -9 8 -11.75 7.125 C-12.4925 6.75375 -13.235 6.3825 -14 6 C-14 5.67 -14 5.34 -14 5 C-10.535 4.505 -10.535 4.505 -7 4 C-7 3.34 -7 2.68 -7 2 C-4.69 2 -2.38 2 0 2 C0 1.34 0 0.68 0 0 Z " fill="#E5E1DC" transform="translate(72,60)"/>
<path d="M0 0 C2.52588702 2.36292656 3.88820837 3.66462511 5 7 C4.2575 7.12375 3.515 7.2475 2.75 7.375 C0.17069951 7.96120466 -1.7482162 8.63284555 -4 10 C-4.33 10.66 -4.66 11.32 -5 12 C-12.75 12.125 -12.75 12.125 -15 11 C-14.67 10.01 -14.34 9.02 -14 8 C-13.01 8.33 -12.02 8.66 -11 9 C-8.47055395 8.17202828 -8.47055395 8.17202828 -5.875 6.8125 C-4.98554688 6.38582031 -4.09609375 5.95914063 -3.1796875 5.51953125 C-0.83644081 4.19423862 -0.83644081 4.19423862 -0.1953125 1.82421875 C-0.13085938 1.22222656 -0.06640625 0.62023437 0 0 Z " fill="#96770C" transform="translate(137,78)"/>
<path d="M0 0 C1.32 0.33 2.64 0.66 4 1 C4.8252404 4.30096158 5.37001429 6.8033 4 10 C3.01 10.33 2.02 10.66 1 11 C0.67 11.66 0.34 12.32 0 13 C-0.99 13.495 -0.99 13.495 -2 14 C-2 13.34 -2 12.68 -2 12 C-2.763125 12 -3.52625 12 -4.3125 12 C-6.20833333 12 -8.10416667 12 -10 12 C-9.67 11.34 -9.34 10.68 -9 10 C-6.93359375 9.3671875 -6.93359375 9.3671875 -4.4375 8.875 C-3.61121094 8.70742187 -2.78492187 8.53984375 -1.93359375 8.3671875 C-0.97646484 8.18542969 -0.97646484 8.18542969 0 8 C0.66 5.69 1.32 3.38 2 1 C1.34 0.67 0.68 0.34 0 0 Z " fill="#95172F" transform="translate(78,75)"/>
<path d="M0 0 C0 0.66 0 1.32 0 2 C0.99 2 1.98 2 3 2 C3 2.66 3 3.32 3 4 C4.65 4.33 6.3 4.66 8 5 C8 5.66 8 6.32 8 7 C6.04196493 7.05389087 4.08351091 7.09274217 2.125 7.125 C1.03445312 7.14820312 -0.05609375 7.17140625 -1.1796875 7.1953125 C-4 7 -4 7 -6 5 C-6 3.68 -6 2.36 -6 1 C-3 0 -3 0 0 0 Z " fill="#D1D0A5" transform="translate(24,72)"/>
<path d="M0 0 C1.56697685 0.05378811 3.1315676 0.18105778 4.69140625 0.33984375 C5.63564453 0.43330078 6.57988281 0.52675781 7.55273438 0.62304688 C8.54595703 0.72681641 9.53917969 0.83058594 10.5625 0.9375 C11.55958984 1.03740234 12.55667969 1.13730469 13.58398438 1.24023438 C16.05651841 1.48867081 18.52843344 1.74214406 21 2 C17.99112219 3.58158962 15.36327963 4.43945339 12 5 C12 4.34 12 3.68 12 3 C11.484375 3.165 10.96875 3.33 10.4375 3.5 C7.26636124 4.15049 4.22781666 4.0620734 1 4 C0.67 7.3 0.34 10.6 0 14 C-0.99 13.67 -1.98 13.34 -3 13 C-2.34 13 -1.68 13 -1 13 C-1.01160156 12.14535156 -1.02320312 11.29070312 -1.03515625 10.41015625 C-1.04417969 9.30542969 -1.05320312 8.20070313 -1.0625 7.0625 C-1.07410156 5.96035156 -1.08570312 4.85820313 -1.09765625 3.72265625 C-1 1 -1 1 0 0 Z " fill="#7A868C" transform="translate(20,59)"/>
<path d="M0 0 C0.66 0 1.32 0 2 0 C2.28875 1.134375 2.5775 2.26875 2.875 3.4375 C3.24625 4.613125 3.6175 5.78875 4 7 C4.66 7.33 5.32 7.66 6 8 C6 9.65 6 11.3 6 13 C3.69 13 1.38 13 -1 13 C-1.0272415 11.58344207 -1.04650467 10.16672955 -1.0625 8.75 C-1.07410156 7.96109375 -1.08570313 7.1721875 -1.09765625 6.359375 C-1.00385306 4.09308998 -0.63241063 2.1711105 0 0 Z " fill="#E4C06C" transform="translate(51,72)"/>
<path d="M0 0 C0 0.66 0 1.32 0 2 C0.66 2 1.32 2 2 2 C2 2.66 2 3.32 2 4 C-1.75 5.125 -1.75 5.125 -4 4 C-4.99 4.495 -4.99 4.495 -6 5 C-6 7.64 -6 10.28 -6 13 C-6.99 13 -7.98 13 -9 13 C-10.21019108 6.70700637 -10.21019108 6.70700637 -9.3125 3.6875 C-6.61669543 0.22146555 -4.31921032 0 0 0 Z " fill="#F93F1E" transform="translate(76,68)"/>
<path d="M0 0 C3.0517868 -0.29344104 5.95943642 -0.45025767 9 0 C10.38232443 1.62626404 11.71937515 3.2925002 13 5 C17.18981106 5.4570703 20.91824012 4.98951755 25 4 C24.01 5.485 24.01 5.485 23 7 C22.34 7 21.68 7 21 7 C20.67 7.66 20.34 8.32 20 9 C17.03 9 14.06 9 11 9 C10.67 8.01 10.34 7.02 10 6 C9.34 6 8.68 6 8 6 C8 5.01 8 4.02 8 3 C5.36 2.34 2.72 1.68 0 1 C0 0.67 0 0.34 0 0 Z " fill="#B4B2AF" transform="translate(87,86)"/>
<path d="M0 0 C0 0.99 0 1.98 0 3 C-1.98 3.99 -1.98 3.99 -4 5 C-3.01 5.33 -2.02 5.66 -1 6 C-1 6.66 -1 7.32 -1 8 C-0.34 8 0.32 8 1 8 C1.33 6.68 1.66 5.36 2 4 C2 5.98 2 7.96 2 10 C1.34 10 0.68 10 0 10 C0 10.66 0 11.32 0 12 C-1.65 12 -3.3 12 -5 12 C-6.52491998 8.95016004 -6.23562548 6.3576631 -6 3 C-4.06841072 0.1486063 -3.51636254 0 0 0 Z " fill="#978E4A" transform="translate(28,80)"/>
<path d="M0 0 C3.01756659 0.20574318 5.07787341 0.77721097 7.75 2.1875 C8.08 3.1775 8.41 4.1675 8.75 5.1875 C7.43 5.5175 6.11 5.8475 4.75 6.1875 C4.42 7.5075 4.09 8.8275 3.75 10.1875 C3.42 9.1975 3.09 8.2075 2.75 7.1875 C2.110625 7.06375 1.47125 6.94 0.8125 6.8125 C0.131875 6.60625 -0.54875 6.4 -1.25 6.1875 C-2.5 3.625 -2.5 3.625 -3.25 1.1875 C-2.25 0.1875 -2.25 0.1875 0 0 Z " fill="#28531B" transform="translate(28.25,69.8125)"/>
<path d="M0 0 C1.65 0 3.3 0 5 0 C4.01 0.495 4.01 0.495 3 1 C3.66 1.33 4.32 1.66 5 2 C5 2.99 5 3.98 5 5 C4.01 5.495 4.01 5.495 3 6 C3.66 6.66 4.32 7.32 5 8 C1.86501708 9.85776765 -0.37471432 10.20140476 -4 10 C-3.34 8.68 -2.68 7.36 -2 6 C-2.66 5.01 -3.32 4.02 -4 3 C-2.68 2.67 -1.36 2.34 0 2 C0 1.34 0 0.68 0 0 Z " fill="#DF9665" transform="translate(87,26)"/>
<path d="M0 0 C1.4540625 0.0309375 1.4540625 0.0309375 2.9375 0.0625 C2.9375 1.0525 2.9375 2.0425 2.9375 3.0625 C2.2775 3.0625 1.6175 3.0625 0.9375 3.0625 C1.288125 3.619375 1.63875 4.17625 2 4.75 C3.15595993 7.60136783 2.74717438 9.14767222 1.9375 12.0625 C0.6175 12.0625 -0.7025 12.0625 -2.0625 12.0625 C-2.3925 9.7525 -2.7225 7.4425 -3.0625 5.0625 C-4.0525 5.5575 -4.0525 5.5575 -5.0625 6.0625 C-3.98897059 0.08140756 -3.98897059 0.08140756 0 0 Z " fill="#AB9107" transform="translate(129.0625,68.9375)"/>
<path d="M0 0 C2.31 0 4.62 0 7 0 C7.33 2.31 7.66 4.62 8 7 C2.06 7.495 2.06 7.495 -4 8 C-4 7.34 -4 6.68 -4 6 C-2.35 6 -0.7 6 1 6 C0.67 4.02 0.34 2.04 0 0 Z " fill="#A07C31" transform="translate(56,79)"/>
<path d="M0 0 C1.18613892 0.00785522 1.18613892 0.00785522 2.39624023 0.01586914 C3.67724609 0.02070312 3.67724609 0.02070312 4.98413086 0.02563477 C5.88196289 0.03401367 6.77979492 0.04239258 7.70483398 0.05102539 C8.6065332 0.05553711 9.50823242 0.06004883 10.43725586 0.06469727 C12.67234712 0.07652315 14.90730835 0.09300319 17.14233398 0.11352539 C16.81233398 1.10352539 16.48233398 2.09352539 16.14233398 3.11352539 C11.88351018 4.91533546 6.74414426 4.46948323 2.32983398 3.48852539 C1.60795898 3.36477539 0.88608398 3.24102539 0.14233398 3.11352539 C-0.51766602 3.77352539 -1.17766602 4.43352539 -1.85766602 5.11352539 C-2.42016602 3.17602539 -2.42016602 3.17602539 -2.85766602 1.11352539 C-1.85766602 0.11352539 -1.85766602 0.11352539 0 0 Z " fill="#8E94AB" transform="translate(21.857666015625,51.886474609375)"/>
<path d="M0 0 C2.86724686 0.57344937 3.8614515 0.8614515 6 3 C5.375 5.875 5.375 5.875 4 9 C0.875 10.375 0.875 10.375 -2 11 C-2.33 10.01 -2.66 9.02 -3 8 C-1.68 7.34 -0.36 6.68 1 6 C0.16666667 3.83333333 0.16666667 3.83333333 -2 3 C-1.34 2.01 -0.68 1.02 0 0 Z " fill="#AAB8C1" transform="translate(43,52)"/>
<path d="M0 0 C2.05078125 0.03255208 4.1015625 0.06510417 6.15234375 0.09765625 C6.48234375 1.08765625 6.81234375 2.07765625 7.15234375 3.09765625 C4.84234375 3.09765625 2.53234375 3.09765625 0.15234375 3.09765625 C-0.17765625 4.41765625 -0.50765625 5.73765625 -0.84765625 7.09765625 C0.47234375 7.75765625 1.79234375 8.41765625 3.15234375 9.09765625 C1.17234375 9.75765625 -0.80765625 10.41765625 -2.84765625 11.09765625 C-2.87453776 9.45191059 -2.89399748 7.80604212 -2.91015625 6.16015625 C-2.92175781 5.24363281 -2.93335938 4.32710938 -2.9453125 3.3828125 C-2.82618856 0.59531224 -2.79215837 0.14757708 0 0 Z " fill="#3B5A39" transform="translate(10.84765625,71.90234375)"/>
<path d="M0 0 C2.62113708 0 4.50935112 0.31292445 7 1 C7 1.66 7 2.32 7 3 C7.66 3 8.32 3 9 3 C9 3.66 9 4.32 9 5 C10.32 5.33 11.64 5.66 13 6 C8.38926889 7.29676812 4.66159911 6.71109139 0 6 C0 4.02 0 2.04 0 0 Z " fill="#ECF5F8" transform="translate(19,54)"/>
<path d="M0 0 C0 0.66 0 1.32 0 2 C-8.58 2 -17.16 2 -26 2 C-26 1.67 -26 1.34 -26 1 C-23.16776345 0.63386686 -20.33489817 0.28186459 -17.5 -0.0625 C-16.31277344 -0.2181543 -16.31277344 -0.2181543 -15.1015625 -0.37695312 C-9.82941554 -1.00356076 -5.24232253 -0.8596928 0 0 Z " fill="#E0DDD9" transform="translate(46,47)"/>
<path d="M0 0 C1.33332095 2.6666419 0.67102033 4.16680303 0 7 C-1.32 6.34 -2.64 5.68 -4 5 C-4.33 7.97 -4.66 10.94 -5 14 C-6.65 14.33 -8.3 14.66 -10 15 C-10 14.34 -10 13.68 -10 13 C-9.01 13 -8.02 13 -7 13 C-6.855625 11.72125 -6.71125 10.4425 -6.5625 9.125 C-6.29357254 6.74307106 -6.07773654 5.15547309 -5 3 C-3.35857037 1.9590934 -1.69287785 0.95495674 0 0 Z " fill="#294BA8" transform="translate(93,70)"/>
<path d="M0 0 C2.97 0 5.94 0 9 0 C9 0.66 9 1.32 9 2 C7.02 2.33 5.04 2.66 3 3 C3.33 4.65 3.66 6.3 4 8 C2.02 8.99 2.02 8.99 0 10 C0 6.7 0 3.4 0 0 Z " fill="#BC4D47" transform="translate(103,78)"/>
<path d="M0 0 C1.32 0.66 2.64 1.32 4 2 C3.14285714 10.57142857 3.14285714 10.57142857 1 14 C-0.32 13.67 -1.64 13.34 -3 13 C-2.67 10.69 -2.34 8.38 -2 6 C-1.34 6 -0.68 6 0 6 C0 4.02 0 2.04 0 0 Z M1 6 C0.67 6.66 0.34 7.32 0 8 C0.66 8.66 1.32 9.32 2 10 C1.67 8.68 1.34 7.36 1 6 Z " fill="#772D7C" transform="translate(47,70)"/>
<path d="M0 0 C0.33 0.66 0.66 1.32 1 2 C1.78375 1.79375 2.5675 1.5875 3.375 1.375 C4.674375 1.189375 4.674375 1.189375 6 1 C6.66 1.66 7.32 2.32 8 3 C7.34 4.65 6.68 6.3 6 8 C7.32 8.33 8.64 8.66 10 9 C6.37 8.67 2.74 8.34 -1 8 C-1 7.67 -1 7.34 -1 7 C0.98 7 2.96 7 5 7 C5 6.34 5 5.68 5 5 C2.03 4.67 -0.94 4.34 -4 4 C-4 3.34 -4 2.68 -4 2 C-2.68 1.34 -1.36 0.68 0 0 Z " fill="#5B465E" transform="translate(35,80)"/>
<path d="M0 0 C0.721875 0.144375 1.44375 0.28875 2.1875 0.4375 C5.19065047 1.03813009 7.94552036 1.07103441 11 1 C11 1.99 11 2.98 11 4 C9.02 4 7.04 4 5 4 C4.67 4.66 4.34 5.32 4 6 C1.36 6 -1.28 6 -4 6 C-3.01 5.34 -2.02 4.68 -1 4 C-1 3.01 -1 2.02 -1 1 C-0.67 0.67 -0.34 0.34 0 0 Z " fill="#85827F" transform="translate(51,63)"/>
<path d="M0 0 C0.625 2.0625 0.625 2.0625 1 4 C-3.10899581 2.87204037 -7.07561214 1.66489182 -11 0 C-11 -0.66 -11 -1.32 -11 -2 C-6.64337851 -3.61356351 -3.94913253 -1.97456626 0 0 Z " fill="#463E3E" transform="translate(82,60)"/>
<path d="M0 0 C1.98 0.495 1.98 0.495 4 1 C2.515 7.435 2.515 7.435 1 14 C0.34 14 -0.32 14 -1 14 C-1.08333357 9.1666528 -0.95261487 4.76307437 0 0 Z " fill="#EC9D0D" transform="translate(95,68)"/>
<path d="M0 0 C0.99 0.33 1.98 0.66 3 1 C3.33 7.6 3.66 14.2 4 21 C2.68 21 1.36 21 0 21 C-0.33 21.66 -0.66 22.32 -1 23 C-1.66 22.34 -2.32 21.68 -3 21 C-2.34644531 20.48566406 -1.69289063 19.97132812 -1.01953125 19.44140625 C1.6966692 16.15779836 1.44075328 14.14332299 1.3125 9.9375 C1.28800781 8.70902344 1.26351562 7.48054688 1.23828125 6.21484375 C1.1309446 2.98410124 1.1309446 2.98410124 0 0 Z " fill="#553317" transform="translate(110,27)"/>
<path d="M0 0 C1.98 0 3.96 0 6 0 C5.75 2.375 5.75 2.375 5 5 C2.9375 6.3125 2.9375 6.3125 1 7 C-0.32 6.01 -1.64 5.02 -3 4 C-2.34 3.67 -1.68 3.34 -1 3 C-0.67 2.01 -0.34 1.02 0 0 Z " fill="#CDC55D" transform="translate(131,78)"/>
<path d="M0 0 C6.625 -0.25 6.625 -0.25 10 2 C9.67 3.32 9.34 4.64 9 6 C8.34 6 7.68 6 7 6 C7 6.66 7 7.32 7 8 C5.35 8.33 3.7 8.66 2 9 C1.67 8.34 1.34 7.68 1 7 C2.65 6.34 4.3 5.68 6 5 C5.67 4.01 5.34 3.02 5 2 C3.35 1.67 1.7 1.34 0 1 C0 0.67 0 0.34 0 0 Z " fill="#57312B" transform="translate(104,68)"/>
<path d="M0 0 C-0.3125 1.9375 -0.3125 1.9375 -1 4 C-1.99 4.33 -2.98 4.66 -4 5 C-4.99 6.485 -4.99 6.485 -6 8 C-6.99 8 -7.98 8 -9 8 C-8.67 7.34 -8.34 6.68 -8 6 C-8.66 5.34 -9.32 4.68 -10 4 C-8.68 3.67 -7.36 3.34 -6 3 C-6 2.34 -6 1.68 -6 1 C-4 0 -4 0 0 0 Z " fill="#678850" transform="translate(20,78)"/>
<path d="M0 0 C-0.66 0 -1.32 0 -2 0 C-1.979375 0.969375 -1.95875 1.93875 -1.9375 2.9375 C-2 6 -2 6 -3 7 C-4.66617115 7.04063832 -6.33388095 7.042721 -8 7 C-7.67 6.34 -7.34 5.68 -7 5 C-6.34 5 -5.68 5 -5 5 C-4.67 3.68 -4.34 2.36 -4 1 C-7.63 1 -11.26 1 -15 1 C-15 0.67 -15 0.34 -15 0 C-13.06325815 -0.19517554 -11.12555991 -0.38087873 -9.1875 -0.5625 C-8.10855469 -0.66691406 -7.02960937 -0.77132812 -5.91796875 -0.87890625 C-3 -1 -3 -1 0 0 Z " fill="#E0E5F4" transform="translate(42,53)"/>
<path d="M0 0 C0.886875 0.185625 1.77375 0.37125 2.6875 0.5625 C5.85178811 0.98042484 7.94839642 0.80777742 11 0 C10.01 0.495 10.01 0.495 9 1 C9.33 1.99 9.66 2.98 10 4 C9.01 4.33 8.02 4.66 7 5 C7 4.34 7 3.68 7 3 C5.35 3.33 3.7 3.66 2 4 C1.67 5.32 1.34 6.64 1 8 C1 6.68 1 5.36 1 4 C0.34 4 -0.32 4 -1 4 C-0.67 2.68 -0.34 1.36 0 0 Z " fill="#7F4F1C" transform="translate(52,68)"/>
<path d="M0 0 C0.66 0 1.32 0 2 0 C2 0.66 2 1.32 2 2 C2.94875 1.95875 3.8975 1.9175 4.875 1.875 C8 2 8 2 10 4 C8.3125 5.5625 8.3125 5.5625 6 7 C3.25 6.6875 3.25 6.6875 1 6 C0.67 4.02 0.34 2.04 0 0 Z " fill="#433A3A" transform="translate(83,59)"/>
<path d="M0 0 C0.66 0 1.32 0 2 0 C2.33 1.65 2.66 3.3 3 5 C1.35 5.66 -0.3 6.32 -2 7 C-2 8.32 -2 9.64 -2 11 C-2.99 10.67 -3.98 10.34 -5 10 C-5 8.35 -5 6.7 -5 5 C-3.02 4.67 -1.04 4.34 1 4 C0.67 2.68 0.34 1.36 0 0 Z " fill="#814135" transform="translate(111,76)"/>
<path d="M0 0 C0.33 0.66 0.66 1.32 1 2 C0.34 2 -0.32 2 -1 2 C-1 2.66 -1 3.32 -1 4 C-4.37097383 5.49821059 -6.20442119 6 -10 6 C-12.25 5 -12.25 5 -14 4 C-10.535 3.505 -10.535 3.505 -7 3 C-7 2.34 -7 1.68 -7 1 C-3.535 0.505 -3.535 0.505 0 0 Z " fill="#B6B4B0" transform="translate(72,61)"/>
<path d="M0 0 C3.96 0 7.92 0 12 0 C8.99535989 1.50232006 7.09765985 2.22558504 4 3 C3.34 3.391875 2.68 3.78375 2 4.1875 C0 5 0 5 -2.25 4.125 C-2.8275 3.75375 -3.405 3.3825 -4 3 C-3.01 2.67 -2.02 2.34 -1 2 C-0.67 1.34 -0.34 0.68 0 0 Z " fill="#A8DE70" transform="translate(20,79)"/>
<path d="M0 0 C0 1.65 0 3.3 0 5 C-1.45823212 5.0270043 -2.91660675 5.04639787 -4.375 5.0625 C-5.18710938 5.07410156 -5.99921875 5.08570312 -6.8359375 5.09765625 C-9 5 -9 5 -11 4 C-10.67 3.01 -10.34 2.02 -10 1 C-9.01 1.33 -8.02 1.66 -7 2 C-1.53333333 0 -1.53333333 0 0 0 Z " fill="#645010" transform="translate(133,85)"/>
<path d="M0 0 C0.66 0.33 1.32 0.66 2 1 C2.05416188 2.60379341 2.09286638 4.20811406 2.125 5.8125 C2.14820312 6.70582031 2.17140625 7.59914063 2.1953125 8.51953125 C2 11 2 11 0 14 C-1.33224462 10.00326615 -1.13442113 6.16705497 -1 2 C-0.67 1.34 -0.34 0.68 0 0 Z " fill="#8D7613" transform="translate(99,67)"/>
<path d="M0 0 C6.39075249 -0.36174071 6.39075249 -0.36174071 9 1.1875 C10 3 10 3 9.6875 5.6875 C9.460625 6.450625 9.23375 7.21375 9 8 C7.53515625 6.73046875 6.0703125 5.4609375 4.60546875 4.19140625 C2.89287029 2.79128769 2.89287029 2.79128769 0 2 C0 1.34 0 0.68 0 0 Z " fill="#A5A3A0" transform="translate(94,61)"/>
<path d="M0 0 C1.98 0 3.96 0 6 0 C6.66 1.32 7.32 2.64 8 4 C4.7 4 1.4 4 -2 4 C-1.34 2.68 -0.68 1.36 0 0 Z " fill="#B1AEAB" transform="translate(83,65)"/>
<path d="M0 0 C1.32 0.33 2.64 0.66 4 1 C4 3.31 4 5.62 4 8 C3.34 8 2.68 8 2 8 C1.67 8.99 1.34 9.98 1 11 C0.01 10.67 -0.98 10.34 -2 10 C-1.649375 9.38125 -1.29875 8.7625 -0.9375 8.125 C-0.628125 7.42375 -0.31875 6.7225 0 6 C-0.33 5.34 -0.66 4.68 -1 4 C-0.01 4 0.98 4 2 4 C1.34 2.68 0.68 1.36 0 0 Z " fill="#F7AE7B" transform="translate(90,27)"/>
<path d="M0 0 C2.375 -0.125 2.375 -0.125 5 0 C5.66 0.66 6.32 1.32 7 2 C6.625 4.625 6.625 4.625 6 7 C4.02 6.34 2.04 5.68 0 5 C0 3.35 0 1.7 0 0 Z M2 2 C1.67 2.99 1.34 3.98 1 5 C1.99 5 2.98 5 4 5 C4 4.01 4 3.02 4 2 C3.34 2 2.68 2 2 2 Z " fill="#2C2A26" transform="translate(115,71)"/>
<path d="M0 0 C0.66 0.33 1.32 0.66 2 1 C2 1.66 2 2.32 2 3 C2.66 3 3.32 3 4 3 C4 4.65 4 6.3 4 8 C1.36 8.33 -1.28 8.66 -4 9 C-4 8.01 -4 7.02 -4 6 C-2.35 6 -0.7 6 1 6 C0.67 4.02 0.34 2.04 0 0 Z " fill="#9F7E0A" transform="translate(136,68)"/>
<path d="M0 0 C0 0.66 0 1.32 0 2 C-3.3 3.32 -6.6 4.64 -10 6 C-10.33 5.34 -10.66 4.68 -11 4 C-10.34 3.34 -9.68 2.68 -9 2 C-8.67 1.34 -8.34 0.68 -8 0 C-5.00463263 -1.13617383 -3.02121511 -0.97110486 0 0 Z " fill="#835C63" transform="translate(75,66)"/>
<path d="M0 0 C2.02558881 3.34939881 2.21738987 5.86962551 2.125 9.75 C2.10695312 10.73484375 2.08890625 11.7196875 2.0703125 12.734375 C2.03550781 13.85585938 2.03550781 13.85585938 2 15 C1.67 15 1.34 15 1 15 C1 12.36 1 9.72 1 7 C0.01 6.67 -0.98 6.34 -2 6 C-2.6875 3.9375 -2.6875 3.9375 -3 2 C-2.01 1.34 -1.02 0.68 0 0 Z " fill="#A55F1D" transform="translate(134,37)"/>
<path d="M0 0 C0.33 0 0.66 0 1 0 C1.33 1.65 1.66 3.3 2 5 C3.65 5 5.3 5 7 5 C7.33 5.99 7.66 6.98 8 8 C4.625 8.625 4.625 8.625 1 9 C-1 7 -1 7 -2 5 C-1.34 5 -0.68 5 0 5 C0 3.35 0 1.7 0 0 Z " fill="#9C9995" transform="translate(14,91)"/>
<path d="M0 0 C4.29 0 8.58 0 13 0 C13 0.66 13 1.32 13 2 C8.23692563 2.95261487 3.8333472 3.08333357 -1 3 C-0.67 2.01 -0.34 1.02 0 0 Z " fill="#C9C6C1" transform="translate(52,89)"/>
<path d="M0 0 C0.99 0.33 1.98 0.66 3 1 C3 2.65 3 4.3 3 6 C0.69 6 -1.62 6 -4 6 C-3.67 4.68 -3.34 3.36 -3 2 C-2.01 2.33 -1.02 2.66 0 3 C0 2.01 0 1.02 0 0 Z " fill="#D7B75C" transform="translate(54,79)"/>
<path d="M0 0 C0 2.31 0 4.62 0 7 C-0.33 7 -0.66 7 -1 7 C-1 5.35 -1 3.7 -1 2 C-2.98 2 -4.96 2 -7 2 C-6.34 4.64 -5.68 7.28 -5 10 C-6.32 10.33 -7.64 10.66 -9 11 C-8.67 7.7 -8.34 4.4 -8 1 C-1.125 0 -1.125 0 0 0 Z " fill="#FEFCF5" transform="translate(29,62)"/>
<path d="M0 0 C0.99 0.33 1.98 0.66 3 1 C3 3.97 3 6.94 3 10 C2.01 10.33 1.02 10.66 0 11 C0 7.37 0 3.74 0 0 Z " fill="#68814B" transform="translate(19,83)"/>
<path d="M0 0 C1 3 1 3 1.375 6.4375 C1.99046979 9.94567781 2.63625434 11.43071124 5 14 C2.13275314 13.42655063 1.1385485 13.1385485 -1 11 C-1.23046875 8.65234375 -1.23046875 8.65234375 -1.1875 5.9375 C-1.18105469 5.03902344 -1.17460938 4.14054687 -1.16796875 3.21484375 C-1 1 -1 1 0 0 Z " fill="#DFA2A5" transform="translate(66,71)"/>
<path d="M0 0 C0.99 0.99 1.98 1.98 3 3 C2.6875 6.6875 2.6875 6.6875 2 10 C0.68 9.67 -0.64 9.34 -2 9 C-1.34 6.03 -0.68 3.06 0 0 Z " fill="#9890EF" transform="translate(84,73)"/>
<path d="M0 0 C2.9375 0.75 2.9375 0.75 6 2 C6.875 4.125 6.875 4.125 7 6 C4.69 5.67 2.38 5.34 0 5 C0 3.35 0 1.7 0 0 Z " fill="#F7F3E7" transform="translate(18,73)"/>
<path d="M0 0 C1.32 0 2.64 0 4 0 C3.62875 0.556875 3.2575 1.11375 2.875 1.6875 C1.70484137 4.05716353 1.70484137 4.05716353 2.875 6.75 C3.431875 7.86375 3.431875 7.86375 4 9 C2.68 9.33 1.36 9.66 0 10 C0 6.7 0 3.4 0 0 Z " fill="#B621D1" transform="translate(39,72)"/>
<path d="M0 0 C0 0.66 0 1.32 0 2 C0.66 2 1.32 2 2 2 C2 2.66 2 3.32 2 4 C-1.81489674 5.46726798 -4.29011622 4.43336419 -8 3 C-4.93882432 0.37613513 -4.26826873 0 0 0 Z " fill="#F7563B" transform="translate(76,68)"/>
<path d="M0 0 C1.98 0.495 1.98 0.495 4 1 C3.01 1 2.02 1 1 1 C1.165 1.804375 1.33 2.60875 1.5 3.4375 C2.09247348 7.65887352 2.08506709 11.74664545 2 16 C-0.49374292 13.50625708 -0.62814292 12.49545655 -1 9 C-0.78729362 5.98159521 -0.42419109 2.99544172 0 0 Z " fill="#BDAAA4" transform="translate(101,72)"/>
<path d="M0 0 C1.2065625 0.0309375 1.2065625 0.0309375 2.4375 0.0625 C2.7675 1.3825 3.0975 2.7025 3.4375 4.0625 C2.4475 4.0625 1.4575 4.0625 0.4375 4.0625 C-0.2225 4.7225 -0.8825 5.3825 -1.5625 6.0625 C-2.2225 4.4125 -2.8825 2.7625 -3.5625 1.0625 C-2.5625 0.0625 -2.5625 0.0625 0 0 Z " fill="#659033" transform="translate(28.5625,69.9375)"/>
<path d="M0 0 C1.32 0 2.64 0 4 0 C2.125 6.75 2.125 6.75 1 9 C0.67 8.01 0.34 7.02 0 6 C-0.66 5.67 -1.32 5.34 -2 5 C-1.34 3.35 -0.68 1.7 0 0 Z " fill="#EAC542" transform="translate(84,36)"/>
<path d="M0 0 C0.33 0.99 0.66 1.98 1 3 C-0.5625 5 -0.5625 5 -3 7 C-6.75 7.25 -6.75 7.25 -10 7 C-9.67 6.34 -9.34 5.68 -9 5 C-8.05125 4.690625 -7.1025 4.38125 -6.125 4.0625 C-3.15310098 3.05205433 -1.93911169 2.37002539 0 0 Z " fill="#D9D6D1" transform="translate(142,84)"/>
<path d="M0 0 C0.66 0 1.32 0 2 0 C1.67 3.96 1.34 7.92 1 12 C0.34 12 -0.32 12 -1 12 C-2.36884358 7.48281619 -1.47075246 4.41225737 0 0 Z " fill="#A7A5A2" transform="translate(144,74)"/>
<path d="M0 0 C-0.33 1.32 -0.66 2.64 -1 4 C-2.75 4.75 -2.75 4.75 -5 5 C-7.25 3.0625 -7.25 3.0625 -9 1 C-5.92677456 0.08941469 -3.19902639 -0.08886184 0 0 Z " fill="#B16963" transform="translate(111,70)"/>
<path d="M0 0 C1.98 0.66 3.96 1.32 6 2 C5.34 3.32 4.68 4.64 4 6 C1.525 5.01 1.525 5.01 -1 4 C-1 1 -1 1 0 0 Z " fill="#EFD7C6" transform="translate(78,54)"/>
<path d="M0 0 C0.515625 0.37125 1.03125 0.7425 1.5625 1.125 C0.9025 2.775 0.2425 4.425 -0.4375 6.125 C-1.7575 5.465 -3.0775 4.805 -4.4375 4.125 C-4.4375 3.795 -4.4375 3.465 -4.4375 3.125 C-6.0875 2.795 -7.7375 2.465 -9.4375 2.125 C-9.4375 1.795 -9.4375 1.465 -9.4375 1.125 C-3.0375 -1.09038462 -3.0375 -1.09038462 0 0 Z " fill="#797774" transform="translate(50.4375,47.875)"/>
<path d="M0 0 C0.99 0 1.98 0 3 0 C3.28875 0.78375 3.5775 1.5675 3.875 2.375 C4.84912254 5.09671632 4.84912254 5.09671632 7 7 C5.02 7 3.04 7 1 7 C0.67 4.69 0.34 2.38 0 0 Z " fill="#AF754D" transform="translate(93,28)"/>
<path d="M0 0 C7.42857143 -0.28571429 7.42857143 -0.28571429 11 2 C9.4375 3.125 9.4375 3.125 7 4 C3.25 3.125 3.25 3.125 0 2 C0 1.34 0 0.68 0 0 Z " fill="#D3D0CA" transform="translate(21,96)"/>
<path d="M0 0 C1.98 0 3.96 0 6 0 C6 1.32 6 2.64 6 4 C4.02 4 2.04 4 0 4 C0 2.68 0 1.36 0 0 Z " fill="#EED7C6" transform="translate(85,57)"/>
<path d="M0 0 C0.66 0 1.32 0 2 0 C2 3.63 2 7.26 2 11 C1.67 9.68 1.34 8.36 1 7 C-0.9837767 5.71563266 -0.9837767 5.71563266 -3 5 C-2.505 4.54625 -2.01 4.0925 -1.5 3.625 C0.22609337 2.12364481 0.22609337 2.12364481 0 0 Z " fill="#D4AFD7" transform="translate(36,72)"/>
<path d="M0 0 C-0.99 1.485 -0.99 1.485 -2 3 C-5.125 3.1875 -5.125 3.1875 -8 3 C-8 3.66 -8 4.32 -8 5 C-8.66 5 -9.32 5 -10 5 C-10.33 4.01 -10.66 3.02 -11 2 C-7.36576791 -0.32590854 -4.22911669 -0.16265833 0 0 Z " fill="#8C6895" transform="translate(46,67)"/>
<path d="M0 0 C1.32 0.33 2.64 0.66 4 1 C3.67 2.32 3.34 3.64 3 5 C0.03 4.505 0.03 4.505 -3 4 C-2.01 2.68 -1.02 1.36 0 0 Z " fill="#F9A565" transform="translate(90,41)"/>
<path d="M0 0 C2.31 0 4.62 0 7 0 C7.33 0.99 7.66 1.98 8 3 C5.36 3 2.72 3 0 3 C0 2.01 0 1.02 0 0 Z " fill="#BEBCB8" transform="translate(104,65)"/>
<path d="M0 0 C0.66 0.33 1.32 0.66 2 1 C2 2.65 2 4.3 2 6 C2.66 6 3.32 6 4 6 C3.67 6.66 3.34 7.32 3 8 C2.01 8.33 1.02 8.66 0 9 C0 8.34 0 7.68 0 7 C-0.66 6.67 -1.32 6.34 -2 6 C-1.34 5.34 -0.68 4.68 0 4 C0 2.68 0 1.36 0 0 Z " fill="#5A5956" transform="translate(32,90)"/>
<path d="M0 0 C6.15234375 0.5859375 6.15234375 0.5859375 8 1 C8.33 1.66 8.66 2.32 9 3 C5.7 3 2.4 3 -1 3 C-0.67 2.01 -0.34 1.02 0 0 Z " fill="#6A6A8F" transform="translate(83,69)"/>
<path d="M0 0 C0.66 0 1.32 0 2 0 C2 0.66 2 1.32 2 2 C3.32 2.33 4.64 2.66 6 3 C2.01803543 4.05404945 -0.98195309 3.84098656 -5 3 C-4.360625 2.690625 -3.72125 2.38125 -3.0625 2.0625 C-1.06389179 1.1654837 -1.06389179 1.1654837 0 0 Z " fill="#D3E8F7" transform="translate(26,57)"/>
<path d="M0 0 C0.66 0 1.32 0 2 0 C2.33 1.98 2.66 3.96 3 6 C1.35 5.67 -0.3 5.34 -2 5 C-1.34 3.35 -0.68 1.7 0 0 Z " fill="#8921AE" transform="translate(46,78)"/>
<path d="M0 0 C0.66 0.33 1.32 0.66 2 1 C2 2.65 2 4.3 2 6 C0.35 6.33 -1.3 6.66 -3 7 C-3 6.34 -3 5.68 -3 5 C-2.01 5 -1.02 5 0 5 C0 3.35 0 1.7 0 0 Z " fill="#2C56CF" transform="translate(86,78)"/>
<path d="M0 0 C1.45742463 -0.08096803 2.91612807 -0.13917774 4.375 -0.1875 C5.18710938 -0.22230469 5.99921875 -0.25710937 6.8359375 -0.29296875 C7.55007812 -0.19628906 8.26421875 -0.09960938 9 0 C9.66 0.99 10.32 1.98 11 3 C7.07103605 3 3.80106772 1.99700137 0 1 C0 0.67 0 0.34 0 0 Z " fill="#DFDDDA" transform="translate(87,86)"/>
<path d="M0 0 C1.98 0 3.96 0 6 0 C5.67 1.65 5.34 3.3 5 5 C3 5 3 5 1.375 3.625 C0 2 0 2 0 0 Z " fill="#A6D668" transform="translate(24,83)"/>
<path d="M0 0 C0.66 0.66 1.32 1.32 2 2 C1.34 2 0.68 2 0 2 C0 2.66 0 3.32 0 4 C-1.65 4.33 -3.3 4.66 -5 5 C-5.33 4.34 -5.66 3.68 -6 3 C-4.02 2.01 -2.04 1.02 0 0 Z " fill="#7A3A31" transform="translate(111,72)"/>
<path d="M0 0 C-3.13498292 1.85776765 -5.37471432 2.20140476 -9 2 C-7 -1 -7 -1 -5.0625 -1.8125 C-3 -2 -3 -2 0 0 Z " fill="#A36545" transform="translate(92,34)"/>
<path d="M0 0 C0.66 0.33 1.32 0.66 2 1 C0.02 1.99 0.02 1.99 -2 3 C-1.34 2.01 -0.68 1.02 0 0 Z " fill="#000000" transform="translate(138,85)"/>
<path d="" fill="#000000" transform="translate(0,0)"/>
<path d="" fill="#000000" transform="translate(0,0)"/>
<path d="" fill="#000000" transform="translate(0,0)"/>
<path d="" fill="#000000" transform="translate(0,0)"/>
<path d="" fill="#000000" transform="translate(0,0)"/>
<path d="" fill="#000000" transform="translate(0,0)"/>
<path d="" fill="#000000" transform="translate(0,0)"/>
<path d="" fill="#000000" transform="translate(0,0)"/>
<path d="" fill="#000000" transform="translate(0,0)"/>
<path d="" fill="#000000" transform="translate(0,0)"/>
<path d="" fill="#000000" transform="translate(0,0)"/>
<path d="" fill="#000000" transform="translate(0,0)"/>
<path d="" fill="#000000" transform="translate(0,0)"/>
<path d="" fill="#000000" transform="translate(0,0)"/>
<path d="" fill="#000000" transform="translate(0,0)"/>
<path d="" fill="#000000" transform="translate(0,0)"/>
<path d="" fill="#000000" transform="translate(0,0)"/>
<path d="" fill="#000000" transform="translate(0,0)"/>
<path d="" fill="#000000" transform="translate(0,0)"/>
<path d="" fill="#000000" transform="translate(0,0)"/>
<path d="" fill="#000000" transform="translate(0,0)"/>
<path d="" fill="#000000" transform="translate(0,0)"/>
<path d="" fill="#000000" transform="translate(0,0)"/>
<path d="" fill="#000000" transform="translate(0,0)"/>
<path d="" fill="#000000" transform="translate(0,0)"/>
<path d="" fill="#000000" transform="translate(0,0)"/>
<path d="" fill="#000000" transform="translate(0,0)"/>
<path d="" fill="#000000" transform="translate(0,0)"/>
<path d="" fill="#000000" transform="translate(0,0)"/>
<path d="" fill="#000000" transform="translate(0,0)"/>
<path d="" fill="#000000" transform="translate(0,0)"/>
<path d="" fill="#000000" transform="translate(0,0)"/>
<path d="" fill="#000000" transform="translate(0,0)"/>
<path d="" fill="#000000" transform="translate(0,0)"/>
<path d="" fill="#000000" transform="translate(0,0)"/>
<path d="" fill="#000000" transform="translate(0,0)"/>
<path d="" fill="#000000" transform="translate(0,0)"/>
<path d="" fill="#000000" transform="translate(0,0)"/>
<path d="" fill="#000000" transform="translate(0,0)"/>
<path d="" fill="#000000" transform="translate(0,0)"/>
<path d="" fill="#000000" transform="translate(0,0)"/>
<path d="" fill="#000000" transform="translate(0,0)"/>
<path d="" fill="#000000" transform="translate(0,0)"/>
<path d="" fill="#000000" transform="translate(0,0)"/>
<path d="" fill="#000000" transform="translate(0,0)"/>
<path d="" fill="#000000" transform="translate(0,0)"/>
<path d="" fill="#000000" transform="translate(0,0)"/>
<path d="" fill="#000000" transform="translate(0,0)"/>
<path d="" fill="#000000" transform="translate(0,0)"/>
<path d="" fill="#000000" transform="translate(0,0)"/>
<path d="" fill="#000000" transform="translate(0,0)"/>
<path d="" fill="#000000" transform="translate(0,0)"/>
<path d="" fill="#000000" transform="translate(0,0)"/>
<path d="" fill="#000000" transform="translate(0,0)"/>
<path d="" fill="#000000" transform="translate(0,0)"/>
<path d="" fill="#000000" transform="translate(0,0)"/>
<path d="" fill="#000000" transform="translate(0,0)"/>
<path d="" fill="#000000" transform="translate(0,0)"/>
<path d="" fill="#000000" transform="translate(0,0)"/>
<path d="" fill="#000000" transform="translate(0,0)"/>
<path d="" fill="#000000" transform="translate(0,0)"/>
<path d="" fill="#000000" transform="translate(0,0)"/>
<path d="" fill="#000000" transform="translate(0,0)"/>
<path d="" fill="#000000" transform="translate(0,0)"/>
<path d="" fill="#000000" transform="translate(0,0)"/>
<path d="" fill="#000000" transform="translate(0,0)"/>
<path d="" fill="#000000" transform="translate(0,0)"/>
<path d="" fill="#000000" transform="translate(0,0)"/>
<path d="" fill="#000000" transform="translate(0,0)"/>
<path d="" fill="#000000" transform="translate(0,0)"/>
<path d="" fill="#000000" transform="translate(0,0)"/>
<path d="" fill="#000000" transform="translate(0,0)"/>
<path d="" fill="#000000" transform="translate(0,0)"/>
<path d="" fill="#000000" transform="translate(0,0)"/>
<path d="" fill="#000000" transform="translate(0,0)"/>
<path d="" fill="#000000" transform="translate(0,0)"/>
<path d="" fill="#000000" transform="translate(0,0)"/>
<path d="" fill="#000000" transform="translate(0,0)"/>
<path d="" fill="#000000" transform="translate(0,0)"/>
<path d="" fill="#000000" transform="translate(0,0)"/>
<path d="" fill="#000000" transform="translate(0,0)"/>
<path d="" fill="#000000" transform="translate(0,0)"/>
<path d="" fill="#000000" transform="translate(0,0)"/>
<path d="" fill="#000000" transform="translate(0,0)"/>
<path d="" fill="#000000" transform="translate(0,0)"/>
<path d="" fill="#000000" transform="translate(0,0)"/>
<path d="" fill="#000000" transform="translate(0,0)"/>
<path d="" fill="#000000" transform="translate(0,0)"/>
<path d="" fill="#000000" transform="translate(0,0)"/>
<path d="" fill="#000000" transform="translate(0,0)"/>
<path d="" fill="#000000" transform="translate(0,0)"/>
<path d="" fill="#000000" transform="translate(0,0)"/>
<path d="" fill="#000000" transform="translate(0,0)"/>
<path d="" fill="#000000" transform="translate(0,0)"/>
<path d="" fill="#000000" transform="translate(0,0)"/>
<path d="" fill="#000000" transform="translate(0,0)"/>
<path d="" fill="#000000" transform="translate(0,0)"/>
<path d="" fill="#000000" transform="translate(0,0)"/>
<path d="" fill="#000000" transform="translate(0,0)"/>
<path d="" fill="#000000" transform="translate(0,0)"/>
<path d="" fill="#000000" transform="translate(0,0)"/>
<path d="" fill="#000000" transform="translate(0,0)"/>
<path d="" fill="#000000" transform="translate(0,0)"/>
<path d="" fill="#000000" transform="translate(0,0)"/>
<path d="" fill="#000000" transform="translate(0,0)"/>
<path d="" fill="#000000" transform="translate(0,0)"/>
<path d="" fill="#000000" transform="translate(0,0)"/>
<path d="" fill="#000000" transform="translate(0,0)"/>
<path d="" fill="#000000" transform="translate(0,0)"/>
<path d="" fill="#000000" transform="translate(0,0)"/>
<path d="" fill="#000000" transform="translate(0,0)"/>
<path d="" fill="#000000" transform="translate(0,0)"/>
<path d="" fill="#000000" transform="translate(0,0)"/>
<path d="" fill="#000000" transform="translate(0,0)"/>
<path d="" fill="#000000" transform="translate(0,0)"/>
<path d="" fill="#000000" transform="translate(0,0)"/>
<path d="" fill="#000000" transform="translate(0,0)"/>
<path d="" fill="#000000" transform="translate(0,0)"/>
<path d="" fill="#000000" transform="translate(0,0)"/>
<path d="" fill="#000000" transform="translate(0,0)"/>
<path d="" fill="#000000" transform="translate(0,0)"/>
<path d="" fill="#000000" transform="translate(0,0)"/>
<path d="" fill="#000000" transform="translate(0,0)"/>
<path d="" fill="#000000" transform="translate(0,0)"/>
<path d="" fill="#000000" transform="translate(0,0)"/>
<path d="" fill="#000000" transform="translate(0,0)"/>
<path d="" fill="#000000" transform="translate(0,0)"/>
</svg>
